<svg width="302" height="302" viewBox="0 0 302 302" fill="none" xmlns="http://www.w3.org/2000/svg">
<g opacity="0.14">
<path d="M198.188 264.25C208.612 264.25 217.062 255.8 217.062 245.375C217.062 234.951 208.612 226.5 198.188 226.5C187.763 226.5 179.312 234.951 179.312 245.375C179.312 255.8 187.763 264.25 198.188 264.25Z" fill="#FFAE00"/>
<path d="M198.188 75.5C208.612 75.5 217.062 67.0494 217.062 56.625C217.062 46.2006 208.612 37.75 198.188 37.75C187.763 37.75 179.312 46.2006 179.312 56.625C179.312 67.0494 187.763 75.5 198.188 75.5Z" fill="#FFAE00"/>
<path d="M37.75 169.875C48.1744 169.875 56.625 161.425 56.625 151C56.625 140.576 48.1744 132.125 37.75 132.125C27.3256 132.125 18.875 140.576 18.875 151C18.875 161.425 27.3256 169.875 37.75 169.875Z" fill="#FFAE00"/>
<path d="M264.25 113.25C255.904 113.275 247.801 116.068 241.212 121.191C234.624 126.315 229.92 133.479 227.84 141.563H187.41C186.073 136.24 183.583 131.277 180.115 127.024C176.647 122.772 172.286 119.334 167.341 116.954C162.397 114.574 156.989 113.31 151.502 113.252C146.015 113.194 140.582 114.344 135.589 116.619L105.606 79.1523C110.539 72.6763 113.224 64.7663 113.25 56.625C113.25 49.1588 111.036 41.8602 106.888 35.6522C102.74 29.4443 96.8442 24.6058 89.9463 21.7486C83.0484 18.8914 75.4581 18.1438 68.1354 19.6004C60.8126 21.057 54.0862 24.6523 48.8067 29.9317C43.5273 35.2112 39.932 41.9376 38.4754 49.2604C37.0188 56.5831 37.7664 64.1734 40.6236 71.0713C43.4808 77.9692 48.3193 83.865 54.5272 88.013C60.7352 92.161 68.0338 94.375 75.5 94.375C80.8203 94.3512 86.0755 93.203 90.9209 91.0058L120.894 128.473C115.94 134.937 113.255 142.855 113.255 151C113.255 159.145 115.94 167.063 120.894 173.527L90.9209 210.994C86.0755 208.797 80.8203 207.649 75.5 207.625C68.0338 207.625 60.7352 209.839 54.5272 213.987C48.3193 218.135 43.4808 224.031 40.6236 230.929C37.7664 237.827 37.0188 245.417 38.4754 252.74C39.932 260.062 43.5273 266.789 48.8067 272.068C54.0862 277.348 60.8126 280.943 68.1354 282.4C75.4581 283.856 83.0484 283.109 89.9463 280.251C96.8442 277.394 102.74 272.556 106.888 266.348C111.036 260.14 113.25 252.841 113.25 245.375C113.224 237.234 110.539 229.324 105.606 222.848L135.579 185.381C140.573 187.658 146.007 188.809 151.495 188.752C156.984 188.695 162.392 187.432 167.338 185.051C172.284 182.671 176.645 179.233 180.114 174.979C183.583 170.725 186.074 165.761 187.41 160.438H227.84C229.617 167.257 233.271 173.441 238.386 178.288C243.501 183.135 249.873 186.451 256.778 187.858C263.683 189.266 270.844 188.709 277.449 186.252C284.053 183.794 289.836 179.534 294.141 173.955C298.446 168.375 301.1 161.701 301.802 154.689C302.505 147.677 301.227 140.609 298.114 134.287C295.001 127.965 290.177 122.642 284.192 118.924C278.206 115.205 271.297 113.24 264.25 113.25ZM56.625 56.625C56.625 52.8919 57.732 49.2426 59.806 46.1386C61.88 43.0347 64.8279 40.6154 68.2769 39.1868C71.7258 37.7582 75.521 37.3844 79.1824 38.1127C82.8437 38.841 86.2069 40.6387 88.8467 43.2784C91.4864 45.9181 93.284 49.2813 94.0123 52.9427C94.7406 56.6041 94.3669 60.3992 92.9383 63.8482C91.5096 67.2971 89.0904 70.245 85.9864 72.319C82.8824 74.393 79.2331 75.5 75.5 75.5C70.4941 75.5 65.6931 73.5114 62.1534 69.9717C58.6136 66.4319 56.625 61.631 56.625 56.625ZM75.5 264.25C71.7669 264.25 68.1176 263.143 65.0136 261.069C61.9097 258.995 59.4904 256.047 58.0618 252.598C56.6332 249.149 56.2594 245.354 56.9877 241.693C57.716 238.031 59.5137 234.668 62.1534 232.028C64.7931 229.389 68.1563 227.591 71.8177 226.863C75.4791 226.134 79.2742 226.508 82.7232 227.937C86.1721 229.365 89.12 231.785 91.194 234.889C93.268 237.993 94.375 241.642 94.375 245.375C94.375 250.381 92.3864 255.182 88.8467 258.722C85.3069 262.261 80.506 264.25 75.5 264.25ZM151 169.875C147.267 169.875 143.618 168.768 140.514 166.694C137.41 164.62 134.99 161.672 133.562 158.223C132.133 154.774 131.759 150.979 132.488 147.318C133.216 143.656 135.014 140.293 137.653 137.653C140.293 135.014 143.656 133.216 147.318 132.488C150.979 131.759 154.774 132.133 158.223 133.562C161.672 134.99 164.62 137.41 166.694 140.514C168.768 143.618 169.875 147.267 169.875 151C169.875 156.006 167.886 160.807 164.347 164.347C160.807 167.886 156.006 169.875 151 169.875ZM264.25 169.875C260.517 169.875 256.868 168.768 253.764 166.694C250.66 164.62 248.24 161.672 246.812 158.223C245.383 154.774 245.009 150.979 245.738 147.318C246.466 143.656 248.264 140.293 250.903 137.653C253.543 135.014 256.906 133.216 260.568 132.488C264.229 131.759 268.024 132.133 271.473 133.562C274.922 134.99 277.87 137.41 279.944 140.514C282.018 143.618 283.125 147.267 283.125 151C283.125 156.006 281.136 160.807 277.597 164.347C274.057 167.886 269.256 169.875 264.25 169.875Z" fill="white"/>
</g>
</svg>
