<svg width="287" height="299" viewBox="0 0 287 299" fill="none" xmlns="http://www.w3.org/2000/svg">
<g opacity="0.06">
<path fill-rule="evenodd" clip-rule="evenodd" d="M262.418 305.735C252.934 283.507 234.499 201.087 250.859 176.902C271.309 146.672 286.869 100.437 262.418 53.3124C237.967 6.18832 179.729 -2.25845 139.718 5.29919C99.7065 12.8568 67.6977 47.5331 66.364 93.768C66.364 98.5101 67.5627 105.737 70.4079 110.005C71.7416 112.005 70.4079 115.34 69.476 117.33C68.9991 118.349 52.7306 142.967 44.5802 155.118C43.0983 158.378 41.2904 165.699 45.9139 168.9C51.6933 172.901 54.3607 173.346 59.2509 173.79C64.1412 174.235 64.5857 183.126 61.9183 191.128C61.9183 192.906 63.1631 196.819 68.1423 198.241C67.1049 200.464 65.0303 205.088 65.0303 205.799C65.0303 206.688 69.476 213.357 70.8097 215.135C72.1434 216.913 71.6988 223.582 70.3651 227.583C69.0314 231.584 69.476 242.698 78.3673 248.477C81.1829 250.256 90.6374 253.545 105.93 252.478L121.935 249.811C124.75 249.663 130.915 250.522 133.049 255.146C135.183 259.769 138.384 270.409 139.718 275.151L147.72 314.273C193.529 290.379 221.891 311.853 262.418 305.735Z" fill="white"/>
<path d="M228.186 115.643C221.414 108.871 210.266 108.622 202.401 113.864C194.399 119.199 193.023 129.636 193.467 132.748C193.912 135.86 197.024 139.861 197.469 140.75C198.013 141.839 198.002 143.222 197.469 143.862C196.728 144.751 195.157 146.974 193.023 148.753C190.586 150.783 189.911 154.532 190.356 156.31C190.8 158.088 192.621 159.21 193.51 159.655C194.564 160.182 196.177 160.544 196.622 160.099C196.956 159.766 196.768 158.468 196.177 157.877C195.587 157.286 195.987 156.458 196.135 156.31C197.469 154.828 200.136 152.309 201.914 150.086C204.048 147.419 204.137 143.418 203.248 140.75C202.234 137.709 197.913 135.86 199.691 127.858C200.722 123.222 205.069 118.966 208.625 117.188C211.293 115.855 219.252 115.855 221.475 117.188C223.698 118.522 230.811 122.079 230.811 134.971C230.811 145.285 229.075 149.43 226.853 153.431C221.913 162.322 217.115 167.89 211.737 172.103C204.314 177.919 199.289 178.771 195.288 177.882C191.287 176.993 189.466 172.759 189.022 172.315C188.666 171.959 188.281 172.166 188.133 172.315C186.397 176.104 189.022 180.105 190.356 181.439C193.425 184.508 196.978 185.351 200.179 184.995C203.379 184.639 210.002 182.56 213.96 178.771C217.919 174.982 221.518 172.478 229.965 159.21C234.41 151.208 236.188 142.549 236.188 134.759C236.188 129.212 234.588 122.044 228.186 115.643Z" fill="#002C4B"/>
<path d="M225.519 139.649C226.006 123.645 215.294 121.867 212.139 123.412C228.112 140.273 209.988 158.904 209.916 158.978C209.518 160.195 225.032 155.654 225.519 139.649Z" fill="#002C4B"/>
<path d="M224.221 94.8628C228.857 92.3664 227.074 87.7303 224.221 86.6604H202.823C202.467 86.6604 201.682 86.5178 201.397 85.9472C201.112 85.3766 192.481 59.2002 191.768 57.0605C191.055 54.9207 185.349 54.2074 184.279 57.0605C183.209 59.9135 168.622 111.097 168.622 111.097C168.622 111.097 151.469 70.6122 150.399 68.1159C149.329 65.6195 144.337 64.9062 142.91 68.1159C141.484 71.3255 136.848 84.8773 136.848 84.8773C136.609 85.9646 136.134 86.6604 135.421 86.6604H117.233C112.24 86.6604 112.24 94.5062 117.233 94.5062H138.274C140.879 94.3388 141.88 93.6136 142.91 91.2966L146.154 79.0011C146.154 79.0011 164.308 120.54 165.378 123.393C166.448 126.246 171.797 125.889 172.867 123.393C173.937 120.897 187.879 70.0855 187.879 70.0855L194.264 90.2267C195.153 93.5452 196.468 94.4867 199.97 94.8628H224.221Z" fill="#002C4B"/>
</g>
</svg>
