<svg width="209" height="64" viewBox="0 0 209 64" fill="none" xmlns="http://www.w3.org/2000/svg">
<path fill-rule="evenodd" clip-rule="evenodd" d="M3.26038 55.0508C5.1873 50.5346 8.21017 40.2737 4.88622 35.3601C0.731284 29.218 -2.43008 19.8242 2.53778 10.2498C7.50564 0.675368 19.3382 -1.0408 27.4674 0.494718C35.5966 2.03024 42.1 9.07557 42.371 18.4693C42.371 19.4328 42.1275 20.9011 41.5494 21.7683C41.2784 22.1747 41.5494 22.8522 41.7387 23.2565C41.8356 23.4635 45.1409 28.4653 46.7969 30.9342C47.098 31.5965 47.4653 33.0839 46.5259 33.7342C45.3517 34.5471 44.8098 34.6375 43.8162 34.7278C42.8226 34.8181 42.7323 36.6246 43.2742 38.2505C43.2742 38.6118 43.0213 39.4066 42.0097 39.6956C42.2204 40.1473 42.642 41.0866 42.642 41.2312C42.642 41.4118 41.7387 42.7667 41.4677 43.128C41.1968 43.4893 41.2871 44.8442 41.5581 45.6571C41.829 46.47 41.7387 48.7281 39.9322 49.9023C39.3602 50.2636 37.4393 50.932 34.3321 50.7153L31.0804 50.1733C30.5083 50.1432 29.2558 50.3178 28.8223 51.2572C28.3887 52.1966 27.7384 54.3584 27.4674 55.3218L25.8416 63.2704C16.5343 58.4158 11.4944 56.2939 3.26038 55.0508Z" fill="#C09CF3"/>
<path d="M81.8715 20.5182H87.0555V42.9182H81.8715V20.5182ZM71.6955 42.9182H66.5115V20.5182H71.6955V42.9182ZM82.2555 33.7342H71.3115V29.3502H82.2555V33.7342ZM100.547 43.1742C98.5846 43.1742 96.8566 42.7902 95.3632 42.0222C93.8912 41.2542 92.7499 40.2089 91.9392 38.8862C91.1286 37.5422 90.7232 36.0169 90.7232 34.3102C90.7232 32.5822 91.1179 31.0569 91.9072 29.7342C92.7179 28.3902 93.8166 27.3449 95.2032 26.5982C96.5899 25.8302 98.1579 25.4462 99.9072 25.4462C101.593 25.4462 103.107 25.8089 104.451 26.5342C105.817 27.2382 106.894 28.2622 107.683 29.6062C108.473 30.9289 108.867 32.5182 108.867 34.3742C108.867 34.5662 108.857 34.7902 108.835 35.0462C108.814 35.2809 108.793 35.5049 108.771 35.7182H94.7872V32.8062H106.147L104.227 33.6702C104.227 32.7742 104.046 31.9955 103.683 31.3342C103.321 30.6729 102.819 30.1609 102.179 29.7982C101.539 29.4142 100.793 29.2222 99.9392 29.2222C99.0859 29.2222 98.3286 29.4142 97.6672 29.7982C97.0272 30.1609 96.5259 30.6835 96.1632 31.3662C95.8006 32.0275 95.6192 32.8169 95.6192 33.7342V34.5022C95.6192 35.4409 95.8219 36.2729 96.2272 36.9982C96.6539 37.7022 97.2406 38.2462 97.9872 38.6302C98.7552 38.9929 99.6512 39.1742 100.675 39.1742C101.593 39.1742 102.393 39.0355 103.075 38.7582C103.779 38.4809 104.419 38.0649 104.995 37.5102L107.651 40.3902C106.862 41.2862 105.87 41.9795 104.675 42.4702C103.481 42.9395 102.105 43.1742 100.547 43.1742ZM122.282 42.9182V39.5582L121.962 38.8222V32.8062C121.962 31.7395 121.631 30.9075 120.97 30.3102C120.33 29.7129 119.338 29.4142 117.994 29.4142C117.077 29.4142 116.17 29.5635 115.274 29.8622C114.399 30.1395 113.653 30.5235 113.034 31.0142L111.242 27.5262C112.181 26.8649 113.311 26.3529 114.634 25.9902C115.957 25.6275 117.301 25.4462 118.666 25.4462C121.29 25.4462 123.327 26.0649 124.778 27.3022C126.229 28.5395 126.954 30.4702 126.954 33.0942V42.9182H122.282ZM117.034 43.1742C115.69 43.1742 114.538 42.9502 113.578 42.5022C112.618 42.0329 111.882 41.4035 111.37 40.6142C110.858 39.8249 110.602 38.9395 110.602 37.9582C110.602 36.9342 110.847 36.0382 111.338 35.2702C111.85 34.5022 112.65 33.9049 113.738 33.4782C114.826 33.0302 116.245 32.8062 117.994 32.8062H122.57V35.7182H118.538C117.365 35.7182 116.554 35.9102 116.106 36.2942C115.679 36.6782 115.466 37.1582 115.466 37.7342C115.466 38.3742 115.711 38.8862 116.202 39.2702C116.714 39.6329 117.407 39.8142 118.282 39.8142C119.114 39.8142 119.861 39.6222 120.522 39.2382C121.183 38.8329 121.663 38.2462 121.962 37.4782L122.73 39.7822C122.367 40.8915 121.706 41.7342 120.746 42.3102C119.786 42.8862 118.549 43.1742 117.034 43.1742ZM131.472 42.9182V25.7022H136.24V30.5662L135.568 29.1582C136.08 27.9422 136.901 27.0249 138.032 26.4062C139.163 25.7662 140.539 25.4462 142.16 25.4462V30.0542C141.947 30.0329 141.755 30.0222 141.584 30.0222C141.413 30.0009 141.232 29.9902 141.04 29.9902C139.675 29.9902 138.565 30.3849 137.712 31.1742C136.88 31.9422 136.464 33.1475 136.464 34.7902V42.9182H131.472ZM155.669 43.3022C153.941 43.3022 152.33 43.0249 150.837 42.4702C149.365 41.8942 148.085 41.0835 146.997 40.0382C145.909 38.9929 145.056 37.7662 144.437 36.3582C143.84 34.9502 143.541 33.4035 143.541 31.7182C143.541 30.0329 143.84 28.4862 144.437 27.0782C145.056 25.6702 145.909 24.4435 146.997 23.3982C148.106 22.3529 149.397 21.5529 150.869 20.9982C152.341 20.4222 153.952 20.1342 155.701 20.1342C157.642 20.1342 159.392 20.4755 160.949 21.1582C162.528 21.8195 163.85 22.8009 164.917 24.1022L161.589 27.1742C160.821 26.2995 159.968 25.6489 159.029 25.2222C158.09 24.7742 157.066 24.5502 155.957 24.5502C154.912 24.5502 153.952 24.7209 153.077 25.0622C152.202 25.4035 151.445 25.8942 150.805 26.5342C150.165 27.1742 149.664 27.9315 149.301 28.8062C148.96 29.6809 148.789 30.6515 148.789 31.7182C148.789 32.7849 148.96 33.7555 149.301 34.6302C149.664 35.5049 150.165 36.2622 150.805 36.9022C151.445 37.5422 152.202 38.0329 153.077 38.3742C153.952 38.7155 154.912 38.8862 155.957 38.8862C157.066 38.8862 158.09 38.6729 159.029 38.2462C159.968 37.7982 160.821 37.1262 161.589 36.2302L164.917 39.3022C163.85 40.6035 162.528 41.5955 160.949 42.2782C159.392 42.9609 157.632 43.3022 155.669 43.3022ZM175.664 43.1742C173.829 43.1742 172.197 42.7902 170.768 42.0222C169.36 41.2542 168.24 40.2089 167.408 38.8862C166.597 37.5422 166.192 36.0169 166.192 34.3102C166.192 32.5822 166.597 31.0569 167.408 29.7342C168.24 28.3902 169.36 27.3449 170.768 26.5982C172.197 25.8302 173.829 25.4462 175.664 25.4462C177.477 25.4462 179.099 25.8302 180.528 26.5982C181.957 27.3449 183.077 28.3795 183.888 29.7022C184.699 31.0249 185.104 32.5609 185.104 34.3102C185.104 36.0169 184.699 37.5422 183.888 38.8862C183.077 40.2089 181.957 41.2542 180.528 42.0222C179.099 42.7902 177.477 43.1742 175.664 43.1742ZM175.664 39.0782C176.496 39.0782 177.243 38.8862 177.904 38.5022C178.565 38.1182 179.088 37.5742 179.472 36.8702C179.856 36.1449 180.048 35.2915 180.048 34.3102C180.048 33.3075 179.856 32.4542 179.472 31.7502C179.088 31.0462 178.565 30.5022 177.904 30.1182C177.243 29.7342 176.496 29.5422 175.664 29.5422C174.832 29.5422 174.085 29.7342 173.424 30.1182C172.763 30.5022 172.229 31.0462 171.824 31.7502C171.44 32.4542 171.248 33.3075 171.248 34.3102C171.248 35.2915 171.44 36.1449 171.824 36.8702C172.229 37.5742 172.763 38.1182 173.424 38.5022C174.085 38.8862 174.832 39.0782 175.664 39.0782ZM196.537 49.3822C194.915 49.3822 193.347 49.1795 191.833 48.7742C190.339 48.3902 189.091 47.8035 188.089 47.0142L190.073 43.4302C190.798 44.0275 191.715 44.4969 192.825 44.8382C193.955 45.2009 195.065 45.3822 196.153 45.3822C197.923 45.3822 199.203 44.9875 199.993 44.1982C200.803 43.4089 201.209 42.2355 201.209 40.6782V38.0862L201.529 33.7662L201.465 29.4142V25.7022H206.201V40.0382C206.201 43.2382 205.369 45.5955 203.705 47.1102C202.041 48.6249 199.651 49.3822 196.537 49.3822ZM195.769 42.0862C194.169 42.0862 192.718 41.7449 191.417 41.0622C190.137 40.3582 189.102 39.3875 188.313 38.1502C187.545 36.8915 187.161 35.4302 187.161 33.7662C187.161 32.0809 187.545 30.6195 188.313 29.3822C189.102 28.1235 190.137 27.1529 191.417 26.4702C192.718 25.7875 194.169 25.4462 195.769 25.4462C197.219 25.4462 198.499 25.7449 199.609 26.3422C200.718 26.9182 201.582 27.8249 202.201 29.0622C202.819 30.2782 203.129 31.8462 203.129 33.7662C203.129 35.6649 202.819 37.2329 202.201 38.4702C201.582 39.6862 200.718 40.5929 199.609 41.1902C198.499 41.7875 197.219 42.0862 195.769 42.0862ZM196.761 37.9902C197.635 37.9902 198.414 37.8195 199.097 37.4782C199.779 37.1155 200.313 36.6142 200.697 35.9742C201.081 35.3342 201.273 34.5982 201.273 33.7662C201.273 32.9129 201.081 32.1769 200.697 31.5582C200.313 30.9182 199.779 30.4275 199.097 30.0862C198.414 29.7235 197.635 29.5422 196.761 29.5422C195.886 29.5422 195.107 29.7235 194.425 30.0862C193.742 30.4275 193.198 30.9182 192.793 31.5582C192.409 32.1769 192.217 32.9129 192.217 33.7662C192.217 34.5982 192.409 35.3342 192.793 35.9742C193.198 36.6142 193.742 37.1155 194.425 37.4782C195.107 37.8195 195.886 37.9902 196.761 37.9902Z" fill="#011632"/>
</svg>
