<svg width="40" height="40" viewBox="0 0 40 40" fill="none" xmlns="http://www.w3.org/2000/svg">
<path d="M0 20C0 8.95431 8.95431 0 20 0C31.0457 0 40 8.95431 40 20C40 31.0457 31.0457 40 20 40C8.95431 40 0 31.0457 0 20Z" fill="#4B2C78" fill-opacity="0.1"/>
<path d="M22.8975 20.7412L24.16 27.8462C24.1742 27.9299 24.1624 28.0159 24.1264 28.0927C24.0903 28.1695 24.0317 28.2335 23.9583 28.276C23.8849 28.3186 23.8003 28.3378 23.7157 28.331C23.6311 28.3241 23.5507 28.2917 23.485 28.2379L20.5017 25.9987C20.3577 25.8911 20.1827 25.833 20.003 25.833C19.8232 25.833 19.6482 25.8911 19.5042 25.9987L16.5159 28.237C16.4503 28.2907 16.3699 28.3232 16.2854 28.33C16.201 28.3368 16.1164 28.3177 16.0431 28.2753C15.9697 28.2328 15.9111 28.169 15.875 28.0923C15.8388 28.0157 15.8269 27.9298 15.8409 27.8462L17.1025 20.7412" stroke="#4B2C78" stroke-width="1.66667" stroke-linecap="round" stroke-linejoin="round"/>
<path d="M20 21.667C22.7614 21.667 25 19.4284 25 16.667C25 13.9056 22.7614 11.667 20 11.667C17.2386 11.667 15 13.9056 15 16.667C15 19.4284 17.2386 21.667 20 21.667Z" stroke="#4B2C78" stroke-width="1.66667" stroke-linecap="round" stroke-linejoin="round"/>
</svg>
