<svg width="34" height="26" viewBox="0 0 34 26" fill="none" xmlns="http://www.w3.org/2000/svg">
<path d="M6.806 9.53792C6.0551 9.07582 5.3042 8.64261 4.52441 8.2094L6.806 6.67871V9.53792Z" fill="white"/>
<path d="M14.7771 18.1733L4.00454 25.4512C3.97566 25.3357 3.94678 25.2202 3.94678 25.1047V9.24908C8.22114 11.5018 11.8601 14.5054 14.7771 18.1733Z" fill="white"/>
<path d="M20.669 2.34657H13.2178L16.4524 0.151625C16.7412 -0.0505415 17.1167 -0.0505415 17.4344 0.151625L20.669 2.34657Z" fill="white"/>
<path d="M17.5788 9.91337C17.7232 10.0289 17.7809 10.2311 17.8098 10.4043V10.5487C17.7809 10.7798 17.6943 11.0397 17.4921 11.213C17.29 11.4152 17.03 11.5307 16.7701 11.5307C16.5391 11.5307 16.308 11.4729 16.1636 11.2997C15.817 10.9531 15.8748 10.3755 16.2791 9.97113C16.5102 9.74008 16.7701 9.65344 17.03 9.65344C17.2322 9.68232 17.4344 9.76897 17.5788 9.91337Z" fill="white"/>
<path d="M25.6076 3.5307H8.27904C8.13464 3.5307 7.99023 3.64622 7.99023 3.81951V10.3177C10.965 12.3394 13.5642 14.7654 15.7592 17.5379C15.7881 17.509 15.8169 17.509 15.8458 17.4802C16.5101 17.0469 17.3765 17.0469 18.0697 17.4802C18.0985 17.4802 18.1274 17.509 18.1563 17.5379C20.3512 14.7654 22.9794 12.3394 25.9252 10.3177V3.81951C25.9252 3.64622 25.7808 3.5307 25.6076 3.5307ZM21.3332 11.3285C21.2754 11.7617 21.0444 12.1372 20.7267 12.3971C20.409 12.6571 20.0047 12.8015 19.5715 12.8015C19.0227 12.8015 18.5317 12.5415 18.2141 12.1661C17.8386 12.5126 17.3476 12.7148 16.8278 12.7437C16.7989 12.7437 16.77 12.7437 16.7123 12.7437C16.1635 12.7437 15.7014 12.5415 15.326 12.1661C14.9505 11.7906 14.7484 11.2708 14.7484 10.7798C14.7484 10.2022 14.9794 9.62456 15.4126 9.19135C16.1058 8.49821 17.0877 8.32492 17.8964 8.72926C18.0119 8.55597 18.1852 8.46933 18.3873 8.46933C18.705 8.46933 18.965 8.72925 18.965 9.04694V11.0686C18.965 11.3863 19.2249 11.6751 19.5715 11.6751C19.8603 11.6751 20.1202 11.4729 20.1491 11.1841C20.178 11.0397 20.178 10.8664 20.178 10.722C20.2068 8.93142 18.7628 7.4585 16.9722 7.42962C16.0769 7.40074 15.2393 7.74731 14.604 8.38268C13.9686 9.01806 13.622 9.85561 13.6509 10.7509C13.6798 12.5126 15.1527 13.9278 16.8855 13.9567C17.3188 13.9567 17.752 13.87 18.1852 13.6968C18.474 13.5812 18.8206 13.6968 18.965 14.0145C19.0805 14.3033 18.965 14.6498 18.6473 14.7942C18.0985 15.0253 17.5209 15.1408 16.9144 15.1408H16.8855C14.4884 15.1408 12.5245 13.1769 12.4668 10.7798C12.4379 9.5668 12.9 8.41157 13.7664 7.54514C14.6328 6.67871 15.7592 6.21662 17.0011 6.2455C19.4271 6.30326 21.391 8.29604 21.3621 10.7509C21.391 10.8953 21.3621 11.1264 21.3332 11.3285Z" fill="white"/>
<path d="M17.9541 18.8087L28.6111 26H5.27539L15.9324 18.8087L16.4523 18.4621C16.7411 18.2599 17.1165 18.2599 17.4054 18.4621C17.4342 18.4621 17.9541 18.8087 17.9541 18.8087Z" fill="white"/>
<path d="M29.3622 8.20941C28.5824 8.61374 27.8026 9.07583 27.0806 9.53793V6.64984L29.3622 8.20941Z" fill="white"/>
<path d="M29.9397 9.24908V25.1047C29.9397 25.2202 29.9108 25.3357 29.8819 25.4512L19.1094 18.1733C22.0263 14.5054 25.6653 11.5018 29.9397 9.24908Z" fill="white"/>
</svg>
