<svg width="34" height="26" viewBox="0 0 34 26" fill="none" xmlns="http://www.w3.org/2000/svg">
<path d="M23.114 14.8272H25.5702V17.2834H23.114V14.8272ZM31.2614 16.0553C31.2614 18.1521 30.5126 20.1889 29.1647 21.8664C29.4043 22.3456 29.7637 22.7051 30.1831 22.9747C30.6324 23.2742 30.8421 23.7834 30.7223 24.2926C30.6024 24.8018 30.213 25.1613 29.6739 25.2512C29.3144 25.3111 28.955 25.341 28.5955 25.341C27.5172 25.341 26.5287 25.1313 25.6301 24.682C23.9527 25.5507 22.0356 26 20.0587 26C13.8882 26 8.8559 21.5369 8.8559 16.0553C8.8559 10.5737 13.8582 6.1106 20.0287 6.1106C26.1992 6.1106 31.2614 10.5737 31.2614 16.0553ZM29.3144 16.0553C29.3144 11.6221 25.1508 8.02765 20.0287 8.02765C14.9066 8.02765 10.743 11.6221 10.743 16.0553C10.743 20.4885 14.9066 24.0829 20.0287 24.0829C21.8559 24.0829 23.5932 23.6336 25.1209 22.765L25.6001 22.4954L26.0794 22.7949C26.5886 23.0945 27.1577 23.3041 27.7868 23.394C27.4872 23.0046 27.2776 22.5553 27.0978 22.076L26.8882 21.5369L27.2776 21.1175C28.6255 19.6198 29.3144 17.8825 29.3144 16.0553ZM18.8306 17.2834H21.2868V14.8272H18.8306V17.2834ZM14.5471 17.2834H17.0034V14.8272H14.5471V17.2834ZM3.22457 15.2465C3.01489 15.3664 3.0748 15.6959 3.31443 15.7258C4.15314 15.8456 5.56097 15.8756 6.87894 15.0668C7.44807 8.98618 13.1393 4.19355 20.0886 4.19355C18.5011 1.70737 15.4458 0 11.9412 0C6.81904 0 2.62549 3.65438 2.62549 8.17742C2.62549 10.1244 3.40429 11.9217 4.69231 13.3295C4.48263 13.9885 4.03332 14.7074 3.22457 15.2465Z" fill="white"/>
</svg>
