<svg width="34" height="26" viewBox="0 0 34 26" fill="none" xmlns="http://www.w3.org/2000/svg">
<path d="M30.03 12.1295C30.03 9.99151 29.3388 7.94982 28.0405 6.20246L28.475 5.53662C29.9779 7.45929 30.7734 9.73884 30.7734 12.1297V13.4052H30.03L30.03 12.1295ZM3.85213 13.405V12.1295C3.85213 9.99151 4.54338 7.94982 5.84166 6.20246L5.40713 5.53662C3.9043 7.45929 3.10876 9.73884 3.10876 12.1297V13.4052L3.85213 13.405ZM30.398 14.1484H29.7776C29.5957 14.1484 29.446 14.2968 29.446 14.48V15.793C30.0196 15.797 30.8245 15.7368 31.354 15.9868V14.484C31.354 14.3022 31.2055 14.1498 31.0197 14.1498C31.013 14.1484 30.4033 14.1484 30.398 14.1484ZM33.2138 18.8521H32.9424V22.2656H33.2138C33.5815 22.2656 33.8863 21.9607 33.8863 21.5931V19.526C33.8863 19.1543 33.5815 18.8521 33.2138 18.8521ZM32.1976 18.3507C32.2177 17.3746 31.354 16.5189 30.3793 16.5363H29.446V24.5827H30.3793C31.4328 24.5868 32.2605 23.6842 32.1976 22.6373V18.3507ZM27.5419 15.1191C26.1915 15.1191 25.0951 16.2154 25.0951 17.5658V23.5531C25.0951 24.8995 26.1915 25.9999 27.5419 25.9999C28.181 25.9999 28.7024 25.4798 28.7024 24.8393V16.2795C28.7024 15.6404 28.1823 15.1191 27.5419 15.1191ZM1.36692e-06 19.526V21.5931C1.36692e-06 21.9607 0.300838 22.2656 0.672521 22.2656H0.939931L0.941268 18.8521H0.67252C0.300833 18.8521 1.36692e-06 19.1543 1.36692e-06 19.526ZM6.34013 15.1191C5.70102 15.1191 5.18359 15.6392 5.18359 16.2796V24.8395C5.18359 25.4786 5.70102 26 6.34013 26C7.69054 26 8.78691 24.8996 8.78691 23.5532V17.566C8.78691 16.2169 7.68921 15.1191 6.34013 15.1191ZM1.68438 18.3507V22.6385C1.62154 23.6841 2.44918 24.5866 3.50277 24.5839H4.43604V16.5361H3.50277C2.52537 16.5187 1.66299 17.3773 1.68438 18.3507ZM4.10443 14.1485H3.48404H3.48003C3.47736 14.1471 2.86632 14.1498 2.86231 14.1485C2.67646 14.1485 2.52805 14.3009 2.52805 14.4827V15.9856C3.05886 15.7355 3.85974 15.7971 4.43601 15.7917V14.4787C4.43601 14.2982 4.28761 14.1485 4.10443 14.1485ZM7.37352 5.88301C9.3002 3.86004 12.0666 2.69682 14.9626 2.69682H18.9191C21.8151 2.69682 24.5829 3.86004 26.5082 5.88301C27.2784 6.55152 28.0204 5.08614 27.9777 4.42964C27.9817 3.84269 27.7209 3.29582 27.2677 2.9268C24.9319 1.04157 21.9691 0 18.919 0H14.9626C11.9128 0 8.95001 1.04157 6.61392 2.9268C6.16067 3.29448 5.89995 3.84135 5.90396 4.42964C5.86786 5.08747 6.59534 6.55152 7.37352 5.88301ZM20.4618 12.2272H16.9561C16.0001 12.2272 15.2233 13.0041 15.2233 13.9641V16.6903C15.2233 17.6503 16.0001 18.4271 16.9561 18.4271H20.574C20.6596 18.3562 22.0889 19.2748 22.1986 19.3163V13.9626C22.1986 13.0039 21.4218 12.2272 20.4618 12.2272ZM18.6621 11.4825V10.5078C18.6621 9.55178 17.8813 8.77096 16.9253 8.77096L13.4196 8.7723C12.4636 8.7723 11.6868 9.55312 11.6868 10.5091V15.8642C11.7831 15.8294 13.2338 14.9028 13.3087 14.9723H14.4799V13.9642C14.4799 12.5964 15.5923 11.484 16.9561 11.484L18.6621 11.4825Z" fill="white"/>
</svg>
