<svg width="48" height="48" viewBox="0 0 48 48" fill="none" xmlns="http://www.w3.org/2000/svg">
<path d="M0 24C0 10.7452 10.7452 0 24 0C37.2548 0 48 10.7452 48 24C48 37.2548 37.2548 48 24 48C10.7452 48 0 37.2548 0 24Z" fill="#6A5AE0" fill-opacity="0.06"/>
<path d="M30 33C30 30.8783 29.1571 28.8434 27.6569 27.3431C26.1566 25.8429 24.1217 25 22 25C19.8783 25 17.8434 25.8429 16.3431 27.3431C14.8429 28.8434 14 30.8783 14 33" stroke="#C09CF3" stroke-width="2" stroke-linecap="round" stroke-linejoin="round"/>
<path d="M22 25C24.7614 25 27 22.7614 27 20C27 17.2386 24.7614 15 22 15C19.2386 15 17 17.2386 17 20C17 22.7614 19.2386 25 22 25Z" stroke="#C09CF3" stroke-width="2" stroke-linecap="round" stroke-linejoin="round"/>
<path d="M34 32C34 28.63 32 25.5 30 24C30.6575 23.5067 31.1832 22.859 31.5306 22.1142C31.8781 21.3694 32.0366 20.5504 31.9921 19.7298C31.9476 18.9091 31.7015 18.112 31.2755 17.4092C30.8496 16.7063 30.2569 16.1192 29.55 15.7" stroke="#C09CF3" stroke-width="2" stroke-linecap="round" stroke-linejoin="round"/>
</svg>
