<svg width="48" height="48" viewBox="0 0 48 48" fill="none" xmlns="http://www.w3.org/2000/svg">
<path d="M0 24C0 10.7452 10.7452 0 24 0C37.2548 0 48 10.7452 48 24C48 37.2548 37.2548 48 24 48C10.7452 48 0 37.2548 0 24Z" fill="#6A5AE0" fill-opacity="0.06"/>
<path d="M14.062 24.3484C13.9787 24.1238 13.9787 23.8769 14.062 23.6524C14.8737 21.6842 16.2515 20.0014 18.0208 18.8173C19.79 17.6331 21.8711 17.001 24 17.001C26.129 17.001 28.21 17.6331 29.9792 18.8173C31.7485 20.0014 33.1263 21.6842 33.938 23.6524C34.0214 23.8769 34.0214 24.1238 33.938 24.3484C33.1263 26.3165 31.7485 27.9993 29.9792 29.1835C28.21 30.3676 26.129 30.9997 24 30.9997C21.8711 30.9997 19.79 30.3676 18.0208 29.1835C16.2515 27.9993 14.8737 26.3165 14.062 24.3484Z" stroke="#C09CF3" stroke-width="2" stroke-linecap="round" stroke-linejoin="round"/>
<path d="M24 27C25.6569 27 27 25.6569 27 24C27 22.3431 25.6569 21 24 21C22.3431 21 21 22.3431 21 24C21 25.6569 22.3431 27 24 27Z" stroke="#C09CF3" stroke-width="2" stroke-linecap="round" stroke-linejoin="round"/>
</svg>
