<svg width="48" height="48" viewBox="0 0 48 48" fill="none" xmlns="http://www.w3.org/2000/svg">
<path d="M0 24C0 10.7452 10.7452 0 24 0C37.2548 0 48 10.7452 48 24C48 37.2548 37.2548 48 24 48C10.7452 48 0 37.2548 0 24Z" fill="#6A5AE0" fill-opacity="0.06"/>
<path d="M30.4198 24.3223C30.4209 23.1636 30.1027 22.0271 29.5004 21.0373C28.898 20.0475 28.0347 19.2428 27.0051 18.7114C25.9756 18.18 24.8195 17.9424 23.6638 18.0247C22.5081 18.1071 21.3973 18.5061 20.4535 19.1782C19.5096 19.8502 18.7691 20.7692 18.3132 21.8343C17.8572 22.8995 17.7034 24.0696 17.8687 25.2164C18.034 26.3632 18.5119 27.4423 19.2501 28.3354C19.9883 29.2284 20.9582 29.9009 22.0534 30.2791V35H26.171V30.2791C27.4108 29.8513 28.4863 29.0477 29.2479 27.98C30.0094 26.9123 30.4191 25.6337 30.4198 24.3223Z" stroke="#C09CF3" stroke-width="1.3" stroke-linecap="round" stroke-linejoin="round"/>
<path d="M26.8862 32.0574H21.4023V34.1978H26.8862V32.0574Z" stroke="#C09CF3" stroke-width="1.3" stroke-linecap="round" stroke-linejoin="round"/>
<path d="M24.1123 13V14.4708" stroke="#C09CF3" stroke-width="1.3" stroke-linecap="round" stroke-linejoin="round"/>
<path d="M31.6889 15.9084L30.7559 17.0456" stroke="#C09CF3" stroke-width="1.3" stroke-linecap="round" stroke-linejoin="round"/>
<path d="M16.311 15.9084L17.2441 17.0456" stroke="#C09CF3" stroke-width="1.3" stroke-linecap="round" stroke-linejoin="round"/>
</svg>
