<svg width="96" height="96" viewBox="0 0 96 96" fill="none" xmlns="http://www.w3.org/2000/svg">
<rect width="96" height="96" rx="48" fill="white"/>
<rect x="0.6" y="0.6" width="94.8" height="94.8" rx="47.4" stroke="#6A5AE0" stroke-opacity="0.74" stroke-width="1.2" stroke-dasharray="6 6"/>
<path d="M40.1584 55.6146C40.1795 55.6146 40.2007 55.6146 40.222 55.6146H62.9998V40.7581C62.9998 37.8167 62.9966 35.7653 62.795 34.2174C62.599 32.7138 62.2406 31.9176 61.6909 31.3504C61.1412 30.7833 60.3695 30.4135 58.912 30.2114C57.4117 30.0033 55.4233 30 52.5723 30H44.6274C42.8243 30 41.3662 30.0013 40.1584 30.0549V55.6146Z" fill="#6D2ECC"/>
<path d="M37.1793 30.4316C36.4005 30.6459 35.8988 30.9489 35.5089 31.3512C34.9592 31.9183 34.6008 32.7146 34.4048 34.2182C34.2031 35.766 34.2 37.8175 34.2 40.7589V57.0004C34.8996 56.4961 35.6881 56.1121 36.5381 55.8772C36.7433 55.8205 36.9558 55.7761 37.1793 55.7412V30.4316Z" fill="#6D2ECC"/>
<path opacity="0.2" d="M38.2878 30.2066C36.8304 30.4042 36.0586 30.7656 35.5089 31.32C34.9592 31.8743 34.6008 32.6526 34.4048 34.1224C34.2031 35.6353 34.2 37.6405 34.2 40.5157V61.8606C34.2 61.6237 34.2438 61.3861 34.3745 61.0315C34.6023 60.4136 34.701 60.3166 34.8985 60.1225C35.4843 59.5472 36.2876 59.1214 37.2117 58.9226C37.7343 58.8103 38.4162 58.8001 40.3667 58.8001H41.4V62.451C41.4 62.9498 41.4 63.1993 41.5707 63.3001C41.7414 63.4009 41.9749 63.2893 42.4419 63.0662L44.678 61.9979C44.836 61.9225 44.915 61.8849 45 61.8849C45.0849 61.8849 45.1639 61.9225 45.322 61.9979L47.5579 63.0662C48.025 63.2893 48.2585 63.4009 48.4291 63.3001C48.6 63.1993 48.6 62.9498 48.6 62.451V58.8001H63V40.5157C63 37.6405 62.9967 35.6353 62.7951 34.1224C62.5991 32.6526 62.2407 31.8743 61.691 31.32C61.1413 30.7656 60.3696 30.4042 58.9122 30.2066C57.4118 30.0032 55.4234 30 52.5724 30H44.6275C41.7765 30 39.7881 30.0032 38.2878 30.2066Z" fill="#6D2ECC"/>
<path d="M41.3999 58.7998H40.3667C38.4162 58.7998 37.7343 58.8101 37.2117 58.9224C36.2876 59.1211 35.4843 59.547 34.8985 60.1223C34.701 60.3163 34.6023 60.4133 34.3745 61.0313C34.1467 61.6494 34.1828 61.9117 34.2549 62.4358C34.2676 62.5283 34.2813 62.6187 34.2961 62.7069C34.4928 63.8809 34.8526 64.5026 35.4044 64.9454C35.9563 65.3882 36.731 65.6769 38.1941 65.8348C39.7001 65.9973 41.6962 65.9998 44.5582 65.9998H52.5337C55.3957 65.9998 57.3919 65.9973 58.8979 65.8348C60.361 65.6769 61.1357 65.3882 61.6876 64.9454C62.2393 64.5026 62.5991 63.8809 62.7958 62.7069C62.9611 61.7209 62.9936 60.4731 62.9999 58.7998H48.5999V62.4508C48.5999 62.9495 48.5999 63.199 48.4291 63.2998C48.2585 63.4006 48.025 63.289 47.5579 63.066L45.322 61.9979C45.1639 61.9223 45.0849 61.8847 44.9999 61.8847C44.915 61.8847 44.836 61.9223 44.678 61.9977L42.4419 63.066C41.9749 63.289 41.7414 63.4006 41.5707 63.2998C41.3999 63.199 41.3999 62.9495 41.3999 62.4508V58.7998Z" fill="#6D2ECC"/>
</svg>
