<svg width="96" height="96" viewBox="0 0 96 96" fill="none" xmlns="http://www.w3.org/2000/svg">
<rect width="96" height="96" rx="48" fill="white"/>
<rect x="0.6" y="0.6" width="94.8" height="94.8" rx="47.4" stroke="#6A5AE0" stroke-opacity="0.74" stroke-width="1.2" stroke-dasharray="6 6"/>
<path d="M59 33.2725H37C36.4747 33.2725 35.9546 33.374 35.4693 33.5714C34.984 33.7688 34.543 34.058 34.1716 34.4227C33.8001 34.7874 33.5055 35.2203 33.3045 35.6968C33.1035 36.1733 33 36.684 33 37.1997V62.0723C33 63.1139 33.4214 64.1128 34.1716 64.8493C34.543 65.214 34.984 65.5033 35.4693 65.7006C35.9546 65.898 36.4747 65.9996 37 65.9996H59C60.0609 65.9996 61.0783 65.5858 61.8284 64.8493C62.5786 64.1128 63 63.1139 63 62.0723V37.1997C63 36.1581 62.5786 35.1592 61.8284 34.4227C61.0783 33.6862 60.0609 33.2725 59 33.2725Z" fill="#6D2ECC" stroke="#DBD2EA" stroke-miterlimit="10"/>
<path d="M39.6667 51.2723H56.3334M39.6667 46.3633H56.3334M39.6667 56.1814H49.6667" stroke="#DBD2EA" stroke-width="2" stroke-miterlimit="10" stroke-linecap="round"/>
<path d="M53.7312 33.75V36.5996C53.7312 36.7434 53.6731 36.8843 53.5652 36.9902C53.4568 37.0966 53.3073 37.1592 53.1482 37.1592H42.4812C42.3222 37.1591 42.1725 37.0966 42.0642 36.9902C41.9564 36.8843 41.8982 36.7434 41.8982 36.5996V33.75H53.7312Z" stroke="#DBD2EA" stroke-width="1.5"/>
<path d="M51.3332 33.2727C51.3332 32.4047 50.982 31.5723 50.3569 30.9586C49.7317 30.3448 48.8839 30 47.9998 30C47.1158 30 46.2679 30.3448 45.6428 30.9586C45.0177 31.5723 44.6665 32.4047 44.6665 33.2727" stroke="#DBD2EA" stroke-width="2" stroke-miterlimit="10" stroke-linecap="round"/>
</svg>
