<svg width="96" height="96" viewBox="0 0 96 96" fill="none" xmlns="http://www.w3.org/2000/svg">
<rect width="96" height="96" rx="48" fill="white"/>
<rect x="0.6" y="0.6" width="94.8" height="94.8" rx="47.4" stroke="#6A5AE0" stroke-opacity="0.74" stroke-width="1.2" stroke-dasharray="6 6"/>
<path d="M52.8501 58.625H65.6001M59.2251 65V52.25" stroke="#6D2ECC" stroke-width="2" stroke-miterlimit="10" stroke-linecap="round"/>
<path d="M40.9501 31H35.0001C34.0984 31 33.2336 31.3582 32.5959 31.9958C31.9583 32.6335 31.6001 33.4983 31.6001 34.4V40.35C31.6001 40.7965 31.688 41.2386 31.8589 41.6511C32.0298 42.0636 32.2802 42.4384 32.5959 42.7542C32.9117 43.0699 33.2865 43.3203 33.699 43.4912C34.1115 43.6621 34.5536 43.75 35.0001 43.75H40.9501C41.3966 43.75 41.8387 43.6621 42.2512 43.4912C42.6637 43.3203 43.0385 43.0699 43.3543 42.7542C43.67 42.4384 43.9204 42.0636 44.0913 41.6511C44.2622 41.2386 44.3501 40.7965 44.3501 40.35V34.4C44.3501 33.4983 43.9919 32.6335 43.3543 31.9958C42.7166 31.3582 41.8518 31 40.9501 31Z" fill="#DBD2EA" stroke="#6D2ECC" stroke-width="2" stroke-miterlimit="10"/>
<path d="M40.9501 52.25H35.0001C34.0984 52.25 33.2336 52.6082 32.5959 53.2458C31.9583 53.8835 31.6001 54.7483 31.6001 55.65V61.6C31.6001 62.5017 31.9583 63.3665 32.5959 64.0042C33.2336 64.6418 34.0984 65 35.0001 65H40.9501C41.8518 65 42.7166 64.6418 43.3543 64.0042C43.9919 63.3665 44.3501 62.5017 44.3501 61.6V55.65C44.3501 54.7483 43.9919 53.8835 43.3543 53.2458C42.7166 52.6082 41.8518 52.25 40.9501 52.25ZM62.2001 31H56.2501C55.3484 31 54.4836 31.3582 53.8459 31.9958C53.2083 32.6335 52.8501 33.4983 52.8501 34.4V40.35C52.8501 41.2517 53.2083 42.1165 53.8459 42.7542C54.4836 43.3918 55.3484 43.75 56.2501 43.75H62.2001C63.1018 43.75 63.9666 43.3918 64.6043 42.7542C65.2419 42.1165 65.6001 41.2517 65.6001 40.35V34.4C65.6001 33.4983 65.2419 32.6335 64.6043 31.9958C63.9666 31.3582 63.1018 31 62.2001 31Z" fill="#6D2ECC" stroke="#6D2ECC" stroke-width="2" stroke-miterlimit="10"/>
</svg>
