<svg width="64" height="64" viewBox="0 0 64 64" fill="none" xmlns="http://www.w3.org/2000/svg">
<path fill-rule="evenodd" clip-rule="evenodd" d="M11.4049 55.6326C13.3318 51.1164 16.3547 40.8555 13.0308 35.9418C8.87582 29.7998 5.71445 20.406 10.6823 10.8316C15.6502 1.25716 27.4827 -0.459015 35.6119 1.07651C43.7412 2.61203 50.2445 9.65735 50.5155 19.0511C50.5155 20.0146 50.272 21.4829 49.6939 22.35C49.4229 22.7565 49.6939 23.4339 49.8832 23.8383C49.9801 24.0453 53.2855 29.0471 54.9414 31.5159C55.2425 32.1783 55.6098 33.6657 54.6705 34.316C53.4962 35.1289 52.9543 35.2192 51.9607 35.3096C50.9671 35.3999 50.8768 37.2064 51.4188 38.8322C51.4188 39.1935 51.1659 39.9884 50.1542 40.2774C50.365 40.7291 50.7865 41.6684 50.7865 41.813C50.7865 41.9936 49.8832 43.3485 49.6123 43.7098C49.3413 44.0711 49.4316 45.4259 49.7026 46.2389C49.9736 47.0518 49.8832 49.3099 48.0768 50.4841C47.5047 50.8454 45.5838 51.5138 42.4766 51.297L39.2249 50.7551C38.6529 50.725 37.4004 50.8996 36.9668 51.839C36.5332 52.7784 35.8829 54.9401 35.6119 55.9036L33.9861 63.8522C24.6789 58.9976 19.6389 56.8757 11.4049 55.6326Z" fill="#C09CF3"/>
<path d="M17.6376 23.4958C19.0135 22.1199 21.2786 22.0693 22.8764 23.1345C24.5022 24.2184 24.7818 26.3388 24.6915 26.9712C24.6012 27.6034 23.969 28.4163 23.8786 28.597C23.768 28.8183 23.7702 29.0991 23.8786 29.2293C24.0292 29.4099 24.3483 29.8616 24.7819 30.2229C25.2769 30.6354 25.4141 31.3971 25.3238 31.7584C25.2335 32.1197 24.8636 32.3476 24.6829 32.4379C24.4687 32.545 24.141 32.6186 24.0506 32.5283C23.9828 32.4605 24.0209 32.1967 24.1409 32.0766C24.261 31.9566 24.1797 31.7885 24.1496 31.7584C23.8786 31.4573 23.3367 30.9454 22.9754 30.4938C22.5418 29.9519 22.5237 29.139 22.7044 28.597C22.9104 27.9791 23.7883 27.6034 23.427 25.9776C23.2177 25.0357 22.3344 24.1711 21.6119 23.8098C21.0699 23.5389 19.4527 23.5388 19.0011 23.8098C18.5495 24.0808 17.1043 24.8034 17.1043 27.4228C17.1043 29.5183 17.4569 30.3605 17.9085 31.1734C18.9121 32.9799 19.887 34.111 20.9796 34.967C22.4879 36.1487 23.5087 36.3219 24.3216 36.1413C25.1345 35.9606 25.5045 35.1004 25.5948 35.0101C25.667 34.9379 25.7453 34.98 25.7754 35.0101C26.1281 35.7799 25.5948 36.5929 25.3238 36.8638C24.7002 37.4874 23.9784 37.6587 23.328 37.5864C22.6777 37.5142 21.3322 37.0917 20.528 36.3219C19.7237 35.5521 18.9925 35.0433 17.2763 32.3476C16.373 30.7218 16.0117 28.9625 16.0117 27.3798C16.0117 26.2528 16.3369 24.7965 17.6376 23.4958Z" fill="#FDF7EF"/>
<path d="M18.1795 28.3733C18.0805 25.1217 20.2569 24.7603 20.8979 25.0744C17.6526 28.4999 21.335 32.2855 21.3495 32.3003C21.4306 32.5478 18.2785 31.625 18.1795 28.3733Z" fill="#FDF7EF"/>
<path d="M18.4457 19.2736C17.5037 18.7664 17.866 17.8245 18.4457 17.6071H22.7931C22.8656 17.6071 23.025 17.5781 23.0829 17.4622C23.1409 17.3463 24.8944 12.0279 25.0393 11.5931C25.1842 11.1584 26.3435 11.0135 26.5609 11.5931C26.7783 12.1728 29.742 22.5721 29.742 22.5721C29.742 22.5721 33.227 14.3465 33.4443 13.8393C33.6617 13.3321 34.6761 13.1872 34.9659 13.8393C35.2558 14.4914 36.1977 17.2448 36.1977 17.2448C36.2461 17.4657 36.3426 17.6071 36.4875 17.6071H40.1829C41.1973 17.6071 41.1973 19.2012 40.1829 19.2012H35.9079C35.3786 19.1672 35.1752 19.0198 34.9659 18.549L34.3069 16.0509C34.3069 16.0509 30.6185 24.4906 30.4011 25.0702C30.1838 25.6499 29.0969 25.5774 28.8795 25.0702C28.6621 24.563 25.8293 14.2395 25.8293 14.2395L24.5321 18.3317C24.3514 19.0059 24.0843 19.1972 23.3728 19.2736H18.4457Z" fill="#F0B800"/>
</svg>
