<svg width="186" height="112" viewBox="0 0 186 112" fill="none" xmlns="http://www.w3.org/2000/svg">
<rect width="186" height="112" rx="12" fill="white"/>
<path d="M40.4844 38V35.6953H35.7969V33.7734L40.7656 26.5H42.6094V33.7656H44.0312V35.6953H42.6094V38H40.4844ZM40.4844 33.7656V29.8516L37.8516 33.7656H40.4844ZM45.5547 38V35.8047H47.75V38H45.5547ZM51.4219 31.8203C50.8542 31.5807 50.4401 31.2526 50.1797 30.8359C49.9245 30.4141 49.7969 29.9531 49.7969 29.4531C49.7969 28.599 50.0938 27.8932 50.6875 27.3359C51.2865 26.7786 52.1354 26.5 53.2344 26.5C54.3229 26.5 55.1667 26.7786 55.7656 27.3359C56.3698 27.8932 56.6719 28.599 56.6719 29.4531C56.6719 29.9844 56.5339 30.4583 56.2578 30.875C55.9818 31.2865 55.5938 31.6016 55.0938 31.8203C55.7292 32.0755 56.2109 32.4479 56.5391 32.9375C56.8724 33.4271 57.0391 33.9922 57.0391 34.6328C57.0391 35.6901 56.7005 36.5495 56.0234 37.2109C55.3516 37.8724 54.4557 38.2031 53.3359 38.2031C52.2943 38.2031 51.4271 37.9297 50.7344 37.3828C49.9167 36.737 49.5078 35.8516 49.5078 34.7266C49.5078 34.1068 49.6615 33.5391 49.9688 33.0234C50.276 32.5026 50.7604 32.1016 51.4219 31.8203ZM51.875 29.6094C51.875 30.0469 51.9974 30.388 52.2422 30.6328C52.4922 30.8776 52.8229 31 53.2344 31C53.651 31 53.9844 30.8776 54.2344 30.6328C54.4844 30.3828 54.6094 30.0391 54.6094 29.6016C54.6094 29.1901 54.4844 28.862 54.2344 28.6172C53.9896 28.3672 53.6641 28.2422 53.2578 28.2422C52.8359 28.2422 52.5 28.3672 52.25 28.6172C52 28.8672 51.875 29.1979 51.875 29.6094ZM51.6719 34.5156C51.6719 35.1198 51.8255 35.5911 52.1328 35.9297C52.4453 36.2682 52.8333 36.4375 53.2969 36.4375C53.75 36.4375 54.125 36.276 54.4219 35.9531C54.7188 35.625 54.8672 35.1536 54.8672 34.5391C54.8672 34.0026 54.7161 33.5729 54.4141 33.25C54.112 32.9219 53.7292 32.7578 53.2656 32.7578C52.7292 32.7578 52.3281 32.9427 52.0625 33.3125C51.8021 33.6823 51.6719 34.0833 51.6719 34.5156Z" fill="#353535"/>
<g clip-path="url(#clip0_1113_2696)">
<path d="M78.1832 25.5296C78.2124 25.4706 78.2576 25.4209 78.3135 25.3862C78.3695 25.3514 78.434 25.333 78.4999 25.333C78.5658 25.333 78.6303 25.3514 78.6863 25.3862C78.7422 25.4209 78.7873 25.4706 78.8166 25.5296L80.3566 28.6489C80.458 28.8542 80.6078 29.0319 80.793 29.1666C80.9782 29.3013 81.1933 29.389 81.4199 29.4223L84.8639 29.9263C84.9292 29.9357 84.9905 29.9633 85.0409 30.0057C85.0913 30.0482 85.1288 30.104 85.1492 30.1667C85.1696 30.2294 85.1721 30.2965 85.1563 30.3606C85.1405 30.4246 85.1071 30.4829 85.0599 30.5289L82.5692 32.9543C82.405 33.1143 82.2821 33.3119 82.2111 33.53C82.1402 33.7481 82.1233 33.9802 82.1619 34.2063L82.7499 37.6329C82.7614 37.6982 82.7544 37.7653 82.7296 37.8267C82.7048 37.8881 82.6632 37.9413 82.6096 37.9803C82.556 38.0192 82.4925 38.0423 82.4265 38.0469C82.3604 38.0515 82.2944 38.0374 82.2359 38.0063L79.1572 36.3876C78.9544 36.2811 78.7287 36.2254 78.4996 36.2254C78.2704 36.2254 78.0448 36.2811 77.8419 36.3876L74.7639 38.0063C74.7055 38.0372 74.6395 38.0511 74.5735 38.0464C74.5076 38.0418 74.4442 38.0186 74.3908 37.9797C74.3373 37.9409 74.2958 37.8877 74.271 37.8264C74.2462 37.7651 74.2391 37.6981 74.2506 37.6329L74.8379 34.2069C74.8767 33.9808 74.8599 33.7485 74.7889 33.5303C74.718 33.3121 74.595 33.1144 74.4306 32.9543L71.9399 30.5296C71.8923 30.4836 71.8586 30.4252 71.8425 30.361C71.8265 30.2968 71.8289 30.2293 71.8493 30.1664C71.8697 30.1034 71.9074 30.0475 71.9581 30.0049C72.0088 29.9624 72.0704 29.9349 72.1359 29.9256L75.5792 29.4223C75.8061 29.3893 76.0215 29.3016 76.207 29.1669C76.3924 29.0322 76.5424 28.8545 76.6439 28.6489L78.1832 25.5296Z" fill="#F0B800" stroke="#F0B800" stroke-width="1.33333" stroke-linecap="round" stroke-linejoin="round"/>
</g>
<g clip-path="url(#clip1_1113_2696)">
<path d="M94.1832 25.5296C94.2124 25.4706 94.2576 25.4209 94.3135 25.3862C94.3695 25.3514 94.434 25.333 94.4999 25.333C94.5658 25.333 94.6303 25.3514 94.6863 25.3862C94.7422 25.4209 94.7873 25.4706 94.8166 25.5296L96.3566 28.6489C96.458 28.8542 96.6078 29.0319 96.793 29.1666C96.9782 29.3013 97.1933 29.389 97.4199 29.4223L100.864 29.9263C100.929 29.9357 100.99 29.9633 101.041 30.0057C101.091 30.0482 101.129 30.104 101.149 30.1667C101.17 30.2294 101.172 30.2965 101.156 30.3606C101.14 30.4246 101.107 30.4829 101.06 30.5289L98.5692 32.9543C98.405 33.1143 98.2821 33.3119 98.2111 33.53C98.1402 33.7481 98.1233 33.9802 98.1619 34.2063L98.7499 37.6329C98.7614 37.6982 98.7544 37.7653 98.7296 37.8267C98.7048 37.8881 98.6632 37.9413 98.6096 37.9803C98.556 38.0192 98.4925 38.0423 98.4265 38.0469C98.3604 38.0515 98.2944 38.0374 98.2359 38.0063L95.1572 36.3876C94.9544 36.2811 94.7287 36.2254 94.4996 36.2254C94.2704 36.2254 94.0448 36.2811 93.8419 36.3876L90.7639 38.0063C90.7055 38.0372 90.6395 38.0511 90.5735 38.0464C90.5076 38.0418 90.4442 38.0186 90.3908 37.9797C90.3373 37.9409 90.2958 37.8877 90.271 37.8264C90.2462 37.7651 90.2391 37.6981 90.2506 37.6329L90.8379 34.2069C90.8767 33.9808 90.8599 33.7485 90.7889 33.5303C90.718 33.3121 90.595 33.1144 90.4306 32.9543L87.9399 30.5296C87.8923 30.4836 87.8586 30.4252 87.8425 30.361C87.8265 30.2968 87.8289 30.2293 87.8493 30.1664C87.8697 30.1034 87.9074 30.0475 87.9581 30.0049C88.0088 29.9624 88.0704 29.9349 88.1359 29.9256L91.5792 29.4223C91.8061 29.3893 92.0215 29.3016 92.207 29.1669C92.3924 29.0322 92.5424 28.8545 92.6439 28.6489L94.1832 25.5296Z" fill="#F0B800" stroke="#F0B800" stroke-width="1.33333" stroke-linecap="round" stroke-linejoin="round"/>
</g>
<g clip-path="url(#clip2_1113_2696)">
<path d="M110.183 25.5296C110.212 25.4706 110.258 25.4209 110.314 25.3862C110.369 25.3514 110.434 25.333 110.5 25.333C110.566 25.333 110.63 25.3514 110.686 25.3862C110.742 25.4209 110.787 25.4706 110.817 25.5296L112.357 28.6489C112.458 28.8542 112.608 29.0319 112.793 29.1666C112.978 29.3013 113.193 29.389 113.42 29.4223L116.864 29.9263C116.929 29.9357 116.99 29.9633 117.041 30.0057C117.091 30.0482 117.129 30.104 117.149 30.1667C117.17 30.2294 117.172 30.2965 117.156 30.3606C117.14 30.4246 117.107 30.4829 117.06 30.5289L114.569 32.9543C114.405 33.1143 114.282 33.3119 114.211 33.53C114.14 33.7481 114.123 33.9802 114.162 34.2063L114.75 37.6329C114.761 37.6982 114.754 37.7653 114.73 37.8267C114.705 37.8881 114.663 37.9413 114.61 37.9803C114.556 38.0192 114.493 38.0423 114.426 38.0469C114.36 38.0515 114.294 38.0374 114.236 38.0063L111.157 36.3876C110.954 36.2811 110.729 36.2254 110.5 36.2254C110.27 36.2254 110.045 36.2811 109.842 36.3876L106.764 38.0063C106.705 38.0372 106.639 38.0511 106.574 38.0464C106.508 38.0418 106.444 38.0186 106.391 37.9797C106.337 37.9409 106.296 37.8877 106.271 37.8264C106.246 37.7651 106.239 37.6981 106.251 37.6329L106.838 34.2069C106.877 33.9808 106.86 33.7485 106.789 33.5303C106.718 33.3121 106.595 33.1144 106.431 32.9543L103.94 30.5296C103.892 30.4836 103.859 30.4252 103.843 30.361C103.827 30.2968 103.829 30.2293 103.849 30.1664C103.87 30.1034 103.907 30.0475 103.958 30.0049C104.009 29.9624 104.07 29.9349 104.136 29.9256L107.579 29.4223C107.806 29.3893 108.021 29.3016 108.207 29.1669C108.392 29.0322 108.542 28.8545 108.644 28.6489L110.183 25.5296Z" fill="#F0B800" stroke="#F0B800" stroke-width="1.33333" stroke-linecap="round" stroke-linejoin="round"/>
</g>
<g clip-path="url(#clip3_1113_2696)">
<path d="M126.183 25.5296C126.212 25.4706 126.258 25.4209 126.314 25.3862C126.369 25.3514 126.434 25.333 126.5 25.333C126.566 25.333 126.63 25.3514 126.686 25.3862C126.742 25.4209 126.787 25.4706 126.817 25.5296L128.357 28.6489C128.458 28.8542 128.608 29.0319 128.793 29.1666C128.978 29.3013 129.193 29.389 129.42 29.4223L132.864 29.9263C132.929 29.9357 132.99 29.9633 133.041 30.0057C133.091 30.0482 133.129 30.104 133.149 30.1667C133.17 30.2294 133.172 30.2965 133.156 30.3606C133.14 30.4246 133.107 30.4829 133.06 30.5289L130.569 32.9543C130.405 33.1143 130.282 33.3119 130.211 33.53C130.14 33.7481 130.123 33.9802 130.162 34.2063L130.75 37.6329C130.761 37.6982 130.754 37.7653 130.73 37.8267C130.705 37.8881 130.663 37.9413 130.61 37.9803C130.556 38.0192 130.493 38.0423 130.426 38.0469C130.36 38.0515 130.294 38.0374 130.236 38.0063L127.157 36.3876C126.954 36.2811 126.729 36.2254 126.5 36.2254C126.27 36.2254 126.045 36.2811 125.842 36.3876L122.764 38.0063C122.705 38.0372 122.639 38.0511 122.574 38.0464C122.508 38.0418 122.444 38.0186 122.391 37.9797C122.337 37.9409 122.296 37.8877 122.271 37.8264C122.246 37.7651 122.239 37.6981 122.251 37.6329L122.838 34.2069C122.877 33.9808 122.86 33.7485 122.789 33.5303C122.718 33.3121 122.595 33.1144 122.431 32.9543L119.94 30.5296C119.892 30.4836 119.859 30.4252 119.843 30.361C119.827 30.2968 119.829 30.2293 119.849 30.1664C119.87 30.1034 119.907 30.0475 119.958 30.0049C120.009 29.9624 120.07 29.9349 120.136 29.9256L123.579 29.4223C123.806 29.3893 124.021 29.3016 124.207 29.1669C124.392 29.0322 124.542 28.8545 124.644 28.6489L126.183 25.5296Z" fill="#F0B800" stroke="#F0B800" stroke-width="1.33333" stroke-linecap="round" stroke-linejoin="round"/>
</g>
<g clip-path="url(#clip4_1113_2696)">
<path d="M142.183 25.5296C142.212 25.4706 142.258 25.4209 142.314 25.3862C142.369 25.3514 142.434 25.333 142.5 25.333C142.566 25.333 142.63 25.3514 142.686 25.3862C142.742 25.4209 142.787 25.4706 142.817 25.5296L144.357 28.6489C144.458 28.8542 144.608 29.0319 144.793 29.1666C144.978 29.3013 145.193 29.389 145.42 29.4223L148.864 29.9263C148.929 29.9357 148.99 29.9633 149.041 30.0057C149.091 30.0482 149.129 30.104 149.149 30.1667C149.17 30.2294 149.172 30.2965 149.156 30.3606C149.14 30.4246 149.107 30.4829 149.06 30.5289L146.569 32.9543C146.405 33.1143 146.282 33.3119 146.211 33.53C146.14 33.7481 146.123 33.9802 146.162 34.2063L146.75 37.6329C146.761 37.6982 146.754 37.7653 146.73 37.8267C146.705 37.8881 146.663 37.9413 146.61 37.9803C146.556 38.0192 146.493 38.0423 146.426 38.0469C146.36 38.0515 146.294 38.0374 146.236 38.0063L143.157 36.3876C142.954 36.2811 142.729 36.2254 142.5 36.2254C142.27 36.2254 142.045 36.2811 141.842 36.3876L138.764 38.0063C138.705 38.0372 138.639 38.0511 138.574 38.0464C138.508 38.0418 138.444 38.0186 138.391 37.9797C138.337 37.9409 138.296 37.8877 138.271 37.8264C138.246 37.7651 138.239 37.6981 138.251 37.6329L138.838 34.2069C138.877 33.9808 138.86 33.7485 138.789 33.5303C138.718 33.3121 138.595 33.1144 138.431 32.9543L135.94 30.5296C135.892 30.4836 135.859 30.4252 135.843 30.361C135.827 30.2968 135.829 30.2293 135.849 30.1664C135.87 30.1034 135.907 30.0475 135.958 30.0049C136.009 29.9624 136.07 29.9349 136.136 29.9256L139.579 29.4223C139.806 29.3893 140.021 29.3016 140.207 29.1669C140.392 29.0322 140.542 28.8545 140.644 28.6489L142.183 25.5296Z" fill="#F0B800" stroke="#F0B800" stroke-width="1.33333" stroke-linecap="round" stroke-linejoin="round"/>
</g>
<path d="M23.2744 65V56.6738H20.3008V54.9785H28.2646V56.6738H25.2979V65H23.2744ZM30.623 65H28.7021V57.7402H30.4863V58.7725C30.7917 58.2848 31.0651 57.9635 31.3066 57.8086C31.5527 57.6536 31.8307 57.5762 32.1406 57.5762C32.5781 57.5762 32.9997 57.6969 33.4053 57.9385L32.8105 59.6133C32.487 59.4036 32.1862 59.2988 31.9082 59.2988C31.6393 59.2988 31.4115 59.374 31.2246 59.5244C31.0378 59.6702 30.8896 59.9368 30.7803 60.3242C30.6755 60.7116 30.623 61.5228 30.623 62.7578V65ZM39.0176 65V63.9131C38.7533 64.3005 38.4046 64.6058 37.9717 64.8291C37.5433 65.0524 37.0898 65.1641 36.6113 65.1641C36.1237 65.1641 35.6862 65.057 35.2988 64.8428C34.9115 64.6286 34.6312 64.3278 34.458 63.9404C34.2848 63.5531 34.1982 63.0176 34.1982 62.334V57.7402H36.1191V61.0762C36.1191 62.097 36.1533 62.7236 36.2217 62.9561C36.2946 63.1839 36.4245 63.3662 36.6113 63.5029C36.7982 63.6351 37.0352 63.7012 37.3223 63.7012C37.6504 63.7012 37.9443 63.6123 38.2041 63.4346C38.4639 63.2523 38.6416 63.029 38.7373 62.7646C38.833 62.4958 38.8809 61.8418 38.8809 60.8027V57.7402H40.8018V65H39.0176ZM42.1211 62.9287L44.0488 62.6348C44.1309 63.0085 44.2972 63.2933 44.5479 63.4893C44.7985 63.6807 45.1494 63.7764 45.6006 63.7764C46.0973 63.7764 46.471 63.6852 46.7217 63.5029C46.8903 63.3753 46.9746 63.2044 46.9746 62.9902C46.9746 62.8444 46.929 62.7236 46.8379 62.6279C46.7422 62.5368 46.528 62.4525 46.1953 62.375C44.6458 62.0332 43.6637 61.721 43.249 61.4385C42.6748 61.0465 42.3877 60.502 42.3877 59.8047C42.3877 59.1758 42.6361 58.6471 43.1328 58.2188C43.6296 57.7904 44.3997 57.5762 45.4434 57.5762C46.4368 57.5762 47.1751 57.738 47.6582 58.0615C48.1413 58.3851 48.474 58.8636 48.6562 59.4971L46.8447 59.832C46.7673 59.5495 46.6191 59.333 46.4004 59.1826C46.1862 59.0322 45.8786 58.957 45.4775 58.957C44.9717 58.957 44.6094 59.0277 44.3906 59.1689C44.2448 59.2692 44.1719 59.3991 44.1719 59.5586C44.1719 59.6953 44.2357 59.8115 44.3633 59.9072C44.5365 60.0348 45.1335 60.2148 46.1543 60.4473C47.1797 60.6797 47.8952 60.9645 48.3008 61.3018C48.7018 61.6436 48.9023 62.1198 48.9023 62.7305C48.9023 63.3958 48.6243 63.9678 48.0684 64.4463C47.5124 64.9248 46.6898 65.1641 45.6006 65.1641C44.6117 65.1641 43.8278 64.9635 43.249 64.5625C42.6748 64.1615 42.2988 63.6169 42.1211 62.9287ZM53.9199 57.7402V59.2715H52.6074V62.1973C52.6074 62.7897 52.6188 63.1361 52.6416 63.2363C52.6689 63.332 52.7259 63.4118 52.8125 63.4756C52.9036 63.5394 53.013 63.5713 53.1406 63.5713C53.3184 63.5713 53.5758 63.5098 53.9131 63.3867L54.0771 64.877C53.6305 65.0684 53.1247 65.1641 52.5596 65.1641C52.2132 65.1641 51.901 65.1071 51.623 64.9932C51.3451 64.8747 51.14 64.7243 51.0078 64.542C50.8802 64.3551 50.7913 64.1045 50.7412 63.79C50.7002 63.5667 50.6797 63.1156 50.6797 62.4365V59.2715H49.7979V57.7402H50.6797V56.2979L52.6074 55.1768V57.7402H53.9199ZM59.457 62.6895L61.3711 63.0107C61.125 63.7126 60.7354 64.248 60.2021 64.6172C59.6735 64.9818 59.0104 65.1641 58.2129 65.1641C56.9505 65.1641 56.0163 64.7516 55.4102 63.9268C54.9316 63.266 54.6924 62.432 54.6924 61.4248C54.6924 60.2217 55.0068 59.2806 55.6357 58.6016C56.2646 57.918 57.0599 57.5762 58.0215 57.5762C59.1016 57.5762 59.9538 57.9339 60.5781 58.6494C61.2025 59.3604 61.501 60.4518 61.4736 61.9238H56.6611C56.6748 62.4935 56.8298 62.9378 57.126 63.2568C57.4222 63.5713 57.7913 63.7285 58.2334 63.7285C58.5342 63.7285 58.7871 63.6465 58.9922 63.4824C59.1973 63.3184 59.3522 63.054 59.457 62.6895ZM59.5664 60.748C59.5527 60.1921 59.4092 59.7705 59.1357 59.4834C58.8623 59.1917 58.5296 59.0459 58.1377 59.0459C57.7184 59.0459 57.3721 59.1986 57.0986 59.5039C56.8252 59.8092 56.6908 60.224 56.6953 60.748H59.5664ZM69.7041 65H67.9199V63.9336C67.6237 64.3483 67.2728 64.6582 66.8672 64.8633C66.4661 65.0638 66.0605 65.1641 65.6504 65.1641C64.8164 65.1641 64.1009 64.8291 63.5039 64.1592C62.9115 63.4847 62.6152 62.5459 62.6152 61.3428C62.6152 60.1123 62.9046 59.1781 63.4834 58.54C64.0622 57.8975 64.7936 57.5762 65.6777 57.5762C66.4889 57.5762 67.1908 57.9134 67.7832 58.5879V54.9785H69.7041V65ZM64.5771 61.2129C64.5771 61.9876 64.6842 62.5482 64.8984 62.8945C65.2083 63.3958 65.6413 63.6465 66.1973 63.6465C66.6393 63.6465 67.0153 63.4596 67.3252 63.0859C67.6351 62.7077 67.79 62.1449 67.79 61.3975C67.79 60.5635 67.6396 59.9642 67.3389 59.5996C67.0381 59.2305 66.653 59.0459 66.1836 59.0459C65.7279 59.0459 65.3451 59.2282 65.0352 59.5928C64.7298 59.9528 64.5771 60.4928 64.5771 61.2129ZM75.4189 65V54.9785H77.3398V58.5879C77.9323 57.9134 78.6341 57.5762 79.4453 57.5762C80.3294 57.5762 81.0609 57.8975 81.6396 58.54C82.2184 59.1781 82.5078 60.0964 82.5078 61.2949C82.5078 62.5345 82.2116 63.4893 81.6191 64.1592C81.0312 64.8291 80.3158 65.1641 79.4727 65.1641C79.0579 65.1641 78.6478 65.0615 78.2422 64.8564C77.8411 64.6468 77.4948 64.3392 77.2031 63.9336V65H75.4189ZM77.3262 61.2129C77.3262 61.9648 77.4447 62.5208 77.6816 62.8809C78.0143 63.3913 78.4564 63.6465 79.0078 63.6465C79.4316 63.6465 79.7917 63.4665 80.0879 63.1064C80.3887 62.7419 80.5391 62.1699 80.5391 61.3906C80.5391 60.5612 80.3887 59.9642 80.0879 59.5996C79.7871 59.2305 79.402 59.0459 78.9326 59.0459C78.4723 59.0459 78.0895 59.2259 77.7842 59.5859C77.4788 59.9414 77.3262 60.4837 77.3262 61.2129ZM83.1504 57.7402H85.1943L86.9307 62.8945L88.626 57.7402H90.6152L88.0518 64.7266L87.5938 65.9912C87.4251 66.415 87.2633 66.7386 87.1084 66.9619C86.958 67.1852 86.7826 67.3652 86.582 67.502C86.3861 67.6432 86.1423 67.7526 85.8506 67.8301C85.5635 67.9076 85.2376 67.9463 84.873 67.9463C84.5039 67.9463 84.1416 67.9076 83.7861 67.8301L83.6152 66.3262C83.916 66.3854 84.1872 66.415 84.4287 66.415C84.8753 66.415 85.2057 66.2829 85.4199 66.0186C85.6341 65.7588 85.7982 65.4261 85.9121 65.0205L83.1504 57.7402ZM99.0781 57.7402V59.2715H97.7656V62.1973C97.7656 62.7897 97.777 63.1361 97.7998 63.2363C97.8271 63.332 97.8841 63.4118 97.9707 63.4756C98.0618 63.5394 98.1712 63.5713 98.2988 63.5713C98.4766 63.5713 98.734 63.5098 99.0713 63.3867L99.2354 64.877C98.7887 65.0684 98.2829 65.1641 97.7178 65.1641C97.3714 65.1641 97.0592 65.1071 96.7812 64.9932C96.5033 64.8747 96.2982 64.7243 96.166 64.542C96.0384 64.3551 95.9495 64.1045 95.8994 63.79C95.8584 63.5667 95.8379 63.1156 95.8379 62.4365V59.2715H94.9561V57.7402H95.8379V56.2979L97.7656 55.1768V57.7402H99.0781ZM102.325 54.9785V58.6631C102.945 57.9385 103.686 57.5762 104.547 57.5762C104.989 57.5762 105.388 57.6582 105.743 57.8223C106.099 57.9863 106.365 58.196 106.543 58.4512C106.725 58.7064 106.848 58.9889 106.912 59.2988C106.98 59.6087 107.015 60.0895 107.015 60.7412V65H105.094V61.165C105.094 60.404 105.057 59.9209 104.984 59.7158C104.911 59.5107 104.782 59.349 104.595 59.2305C104.412 59.1074 104.182 59.0459 103.904 59.0459C103.585 59.0459 103.3 59.1234 103.05 59.2783C102.799 59.4333 102.615 59.668 102.496 59.9824C102.382 60.2923 102.325 60.7526 102.325 61.3633V65H100.404V54.9785H102.325ZM108.525 61.2676C108.525 60.6296 108.683 60.012 108.997 59.415C109.312 58.818 109.756 58.3623 110.33 58.0479C110.909 57.7334 111.554 57.5762 112.265 57.5762C113.363 57.5762 114.263 57.9339 114.965 58.6494C115.667 59.3604 116.018 60.2604 116.018 61.3496C116.018 62.4479 115.662 63.3594 114.951 64.084C114.245 64.804 113.354 65.1641 112.278 65.1641C111.613 65.1641 110.977 65.0137 110.371 64.7129C109.77 64.4121 109.312 63.9723 108.997 63.3936C108.683 62.8102 108.525 62.1016 108.525 61.2676ZM110.494 61.3701C110.494 62.0902 110.665 62.6416 111.007 63.0244C111.349 63.4072 111.77 63.5986 112.271 63.5986C112.773 63.5986 113.192 63.4072 113.529 63.0244C113.871 62.6416 114.042 62.0856 114.042 61.3564C114.042 60.6455 113.871 60.0986 113.529 59.7158C113.192 59.333 112.773 59.1416 112.271 59.1416C111.77 59.1416 111.349 59.333 111.007 59.7158C110.665 60.0986 110.494 60.6501 110.494 61.3701ZM122.307 65V63.9131C122.042 64.3005 121.694 64.6058 121.261 64.8291C120.832 65.0524 120.379 65.1641 119.9 65.1641C119.413 65.1641 118.975 65.057 118.588 64.8428C118.201 64.6286 117.92 64.3278 117.747 63.9404C117.574 63.5531 117.487 63.0176 117.487 62.334V57.7402H119.408V61.0762C119.408 62.097 119.442 62.7236 119.511 62.9561C119.584 63.1839 119.714 63.3662 119.9 63.5029C120.087 63.6351 120.324 63.7012 120.611 63.7012C120.939 63.7012 121.233 63.6123 121.493 63.4346C121.753 63.2523 121.931 63.029 122.026 62.7646C122.122 62.4958 122.17 61.8418 122.17 60.8027V57.7402H124.091V65H122.307ZM125.41 62.9287L127.338 62.6348C127.42 63.0085 127.586 63.2933 127.837 63.4893C128.088 63.6807 128.438 63.7764 128.89 63.7764C129.386 63.7764 129.76 63.6852 130.011 63.5029C130.179 63.3753 130.264 63.2044 130.264 62.9902C130.264 62.8444 130.218 62.7236 130.127 62.6279C130.031 62.5368 129.817 62.4525 129.484 62.375C127.935 62.0332 126.953 61.721 126.538 61.4385C125.964 61.0465 125.677 60.502 125.677 59.8047C125.677 59.1758 125.925 58.6471 126.422 58.2188C126.919 57.7904 127.689 57.5762 128.732 57.5762C129.726 57.5762 130.464 57.738 130.947 58.0615C131.43 58.3851 131.763 58.8636 131.945 59.4971L130.134 59.832C130.056 59.5495 129.908 59.333 129.689 59.1826C129.475 59.0322 129.168 58.957 128.767 58.957C128.261 58.957 127.898 59.0277 127.68 59.1689C127.534 59.2692 127.461 59.3991 127.461 59.5586C127.461 59.6953 127.525 59.8115 127.652 59.9072C127.826 60.0348 128.423 60.2148 129.443 60.4473C130.469 60.6797 131.184 60.9645 131.59 61.3018C131.991 61.6436 132.191 62.1198 132.191 62.7305C132.191 63.3958 131.913 63.9678 131.357 64.4463C130.801 64.9248 129.979 65.1641 128.89 65.1641C127.901 65.1641 127.117 64.9635 126.538 64.5625C125.964 64.1615 125.588 63.6169 125.41 62.9287ZM135.315 59.9551L133.572 59.6406C133.768 58.9388 134.105 58.4193 134.584 58.082C135.062 57.7448 135.773 57.5762 136.717 57.5762C137.574 57.5762 138.212 57.6787 138.631 57.8838C139.05 58.0843 139.344 58.3418 139.513 58.6562C139.686 58.9661 139.772 59.5381 139.772 60.3721L139.752 62.6143C139.752 63.2523 139.782 63.724 139.841 64.0293C139.905 64.3301 140.021 64.6536 140.189 65H138.289C138.239 64.8724 138.177 64.6833 138.104 64.4326C138.073 64.3187 138.05 64.2435 138.036 64.207C137.708 64.526 137.357 64.7653 136.983 64.9248C136.61 65.0843 136.211 65.1641 135.787 65.1641C135.04 65.1641 134.45 64.9613 134.017 64.5557C133.588 64.1501 133.374 63.6374 133.374 63.0176C133.374 62.6074 133.472 62.2428 133.668 61.9238C133.864 61.6003 134.137 61.3542 134.488 61.1855C134.844 61.0124 135.354 60.862 136.02 60.7344C136.917 60.5658 137.539 60.4085 137.886 60.2627V60.0713C137.886 59.7021 137.795 59.4401 137.612 59.2852C137.43 59.1257 137.086 59.0459 136.58 59.0459C136.238 59.0459 135.972 59.1143 135.78 59.251C135.589 59.3831 135.434 59.6178 135.315 59.9551ZM137.886 61.5137C137.64 61.5957 137.25 61.6937 136.717 61.8076C136.184 61.9215 135.835 62.0332 135.671 62.1426C135.42 62.3203 135.295 62.5459 135.295 62.8193C135.295 63.0882 135.395 63.3206 135.596 63.5166C135.796 63.7126 136.051 63.8105 136.361 63.8105C136.708 63.8105 137.038 63.6966 137.353 63.4688C137.585 63.2956 137.738 63.0837 137.811 62.833C137.861 62.6689 137.886 62.3568 137.886 61.8965V61.5137ZM148.276 65H146.355V61.2949C146.355 60.5111 146.314 60.0052 146.232 59.7773C146.15 59.5449 146.016 59.3649 145.829 59.2373C145.647 59.1097 145.426 59.0459 145.166 59.0459C144.833 59.0459 144.535 59.137 144.271 59.3193C144.006 59.5016 143.824 59.7432 143.724 60.0439C143.628 60.3447 143.58 60.9007 143.58 61.7119V65H141.659V57.7402H143.443V58.8066C144.077 57.9863 144.874 57.5762 145.836 57.5762C146.26 57.5762 146.647 57.6536 146.998 57.8086C147.349 57.959 147.613 58.1527 147.791 58.3896C147.973 58.6266 148.099 58.8955 148.167 59.1963C148.24 59.4971 148.276 59.9277 148.276 60.4883V65ZM156.89 65H155.105V63.9336C154.809 64.3483 154.458 64.6582 154.053 64.8633C153.652 65.0638 153.246 65.1641 152.836 65.1641C152.002 65.1641 151.286 64.8291 150.689 64.1592C150.097 63.4847 149.801 62.5459 149.801 61.3428C149.801 60.1123 150.09 59.1781 150.669 58.54C151.248 57.8975 151.979 57.5762 152.863 57.5762C153.674 57.5762 154.376 57.9134 154.969 58.5879V54.9785H156.89V65ZM151.763 61.2129C151.763 61.9876 151.87 62.5482 152.084 62.8945C152.394 63.3958 152.827 63.6465 153.383 63.6465C153.825 63.6465 154.201 63.4596 154.511 63.0859C154.821 62.7077 154.976 62.1449 154.976 61.3975C154.976 60.5635 154.825 59.9642 154.524 59.5996C154.224 59.2305 153.839 59.0459 153.369 59.0459C152.913 59.0459 152.531 59.2282 152.221 59.5928C151.915 59.9528 151.763 60.4928 151.763 61.2129ZM158.113 62.9287L160.041 62.6348C160.123 63.0085 160.289 63.2933 160.54 63.4893C160.791 63.6807 161.142 63.7764 161.593 63.7764C162.09 63.7764 162.463 63.6852 162.714 63.5029C162.882 63.3753 162.967 63.2044 162.967 62.9902C162.967 62.8444 162.921 62.7236 162.83 62.6279C162.734 62.5368 162.52 62.4525 162.188 62.375C160.638 62.0332 159.656 61.721 159.241 61.4385C158.667 61.0465 158.38 60.502 158.38 59.8047C158.38 59.1758 158.628 58.6471 159.125 58.2188C159.622 57.7904 160.392 57.5762 161.436 57.5762C162.429 57.5762 163.167 57.738 163.65 58.0615C164.133 58.3851 164.466 58.8636 164.648 59.4971L162.837 59.832C162.759 59.5495 162.611 59.333 162.393 59.1826C162.178 59.0322 161.871 58.957 161.47 58.957C160.964 58.957 160.602 59.0277 160.383 59.1689C160.237 59.2692 160.164 59.3991 160.164 59.5586C160.164 59.6953 160.228 59.8115 160.355 59.9072C160.529 60.0348 161.126 60.2148 162.146 60.4473C163.172 60.6797 163.887 60.9645 164.293 61.3018C164.694 61.6436 164.895 62.1198 164.895 62.7305C164.895 63.3958 164.617 63.9678 164.061 64.4463C163.505 64.9248 162.682 65.1641 161.593 65.1641C160.604 65.1641 159.82 64.9635 159.241 64.5625C158.667 64.1615 158.291 63.6169 158.113 62.9287Z" fill="#353535"/>
<path d="M39.5547 84.9883L40.6914 85.2754C40.4531 86.209 40.0234 86.9219 39.4023 87.4141C38.7852 87.9023 38.0293 88.1465 37.1348 88.1465C36.209 88.1465 35.4551 87.959 34.873 87.584C34.2949 87.2051 33.8535 86.6582 33.5488 85.9434C33.248 85.2285 33.0977 84.4609 33.0977 83.6406C33.0977 82.7461 33.2676 81.9668 33.6074 81.3027C33.9512 80.6348 34.4375 80.1289 35.0664 79.7852C35.6992 79.4375 36.3945 79.2637 37.1523 79.2637C38.0117 79.2637 38.7344 79.4824 39.3203 79.9199C39.9062 80.3574 40.3145 80.9727 40.5449 81.7656L39.4258 82.0293C39.2266 81.4043 38.9375 80.9492 38.5586 80.6641C38.1797 80.3789 37.7031 80.2363 37.1289 80.2363C36.4688 80.2363 35.916 80.3945 35.4707 80.7109C35.0293 81.0273 34.7188 81.4531 34.5391 81.9883C34.3594 82.5195 34.2695 83.0684 34.2695 83.6348C34.2695 84.3652 34.375 85.0039 34.5859 85.5508C34.8008 86.0938 35.1328 86.5 35.582 86.7695C36.0312 87.0391 36.5176 87.1738 37.041 87.1738C37.6777 87.1738 38.2168 86.9902 38.6582 86.623C39.0996 86.2559 39.3984 85.7109 39.5547 84.9883ZM46.2227 85.9961L47.3125 86.1309C47.1406 86.7676 46.8223 87.2617 46.3574 87.6133C45.8926 87.9648 45.2988 88.1406 44.5762 88.1406C43.666 88.1406 42.9434 87.8613 42.4082 87.3027C41.877 86.7402 41.6113 85.9531 41.6113 84.9414C41.6113 83.8945 41.8809 83.082 42.4199 82.5039C42.959 81.9258 43.6582 81.6367 44.5176 81.6367C45.3496 81.6367 46.0293 81.9199 46.5566 82.4863C47.084 83.0527 47.3477 83.8496 47.3477 84.877C47.3477 84.9395 47.3457 85.0332 47.3418 85.1582H42.7012C42.7402 85.8418 42.9336 86.3652 43.2812 86.7285C43.6289 87.0918 44.0625 87.2734 44.582 87.2734C44.9688 87.2734 45.2988 87.1719 45.5723 86.9688C45.8457 86.7656 46.0625 86.4414 46.2227 85.9961ZM42.7598 84.291H46.2344C46.1875 83.7676 46.0547 83.375 45.8359 83.1133C45.5 82.707 45.0645 82.5039 44.5293 82.5039C44.0449 82.5039 43.6367 82.666 43.3047 82.9902C42.9766 83.3145 42.7949 83.748 42.7598 84.291ZM48.6309 88V81.7773H49.5801V82.7207C49.8223 82.2793 50.0449 81.9883 50.248 81.8477C50.4551 81.707 50.6816 81.6367 50.9277 81.6367C51.2832 81.6367 51.6445 81.75 52.0117 81.9766L51.6484 82.9551C51.3906 82.8027 51.1328 82.7266 50.875 82.7266C50.6445 82.7266 50.4375 82.7969 50.2539 82.9375C50.0703 83.0742 49.9395 83.2656 49.8613 83.5117C49.7441 83.8867 49.6855 84.2969 49.6855 84.7422V88H48.6309ZM54.9414 87.0566L55.0938 87.9883C54.7969 88.0508 54.5312 88.082 54.2969 88.082C53.9141 88.082 53.6172 88.0215 53.4062 87.9004C53.1953 87.7793 53.0469 87.6211 52.9609 87.4258C52.875 87.2266 52.832 86.8105 52.832 86.1777V82.5977H52.0586V81.7773H52.832V80.2363L53.8809 79.6035V81.7773H54.9414V82.5977H53.8809V86.2363C53.8809 86.5371 53.8984 86.7305 53.9336 86.8164C53.9727 86.9023 54.0332 86.9707 54.1152 87.0215C54.2012 87.0723 54.3223 87.0977 54.4785 87.0977C54.5957 87.0977 54.75 87.084 54.9414 87.0566ZM55.9844 80.623V79.4102H57.0391V80.623H55.9844ZM55.9844 88V81.7773H57.0391V88H55.9844ZM58.9023 88V82.5977H57.9707V81.7773H58.9023V81.1152C58.9023 80.6973 58.9395 80.3867 59.0137 80.1836C59.1152 79.9102 59.293 79.6895 59.5469 79.5215C59.8047 79.3496 60.1641 79.2637 60.625 79.2637C60.9219 79.2637 61.25 79.2988 61.6094 79.3691L61.4512 80.2891C61.2324 80.25 61.0254 80.2305 60.8301 80.2305C60.5098 80.2305 60.2832 80.2988 60.1504 80.4355C60.0176 80.5723 59.9512 80.8281 59.9512 81.2031V81.7773H61.1641V82.5977H59.9512V88H58.9023ZM61.9961 80.623V79.4102H63.0508V80.623H61.9961ZM61.9961 88V81.7773H63.0508V88H61.9961ZM68.9219 85.9961L70.0117 86.1309C69.8398 86.7676 69.5215 87.2617 69.0566 87.6133C68.5918 87.9648 67.998 88.1406 67.2754 88.1406C66.3652 88.1406 65.6426 87.8613 65.1074 87.3027C64.5762 86.7402 64.3105 85.9531 64.3105 84.9414C64.3105 83.8945 64.5801 83.082 65.1191 82.5039C65.6582 81.9258 66.3574 81.6367 67.2168 81.6367C68.0488 81.6367 68.7285 81.9199 69.2559 82.4863C69.7832 83.0527 70.0469 83.8496 70.0469 84.877C70.0469 84.9395 70.0449 85.0332 70.041 85.1582H65.4004C65.4395 85.8418 65.6328 86.3652 65.9805 86.7285C66.3281 87.0918 66.7617 87.2734 67.2812 87.2734C67.668 87.2734 67.998 87.1719 68.2715 86.9688C68.5449 86.7656 68.7617 86.4414 68.9219 85.9961ZM65.459 84.291H68.9336C68.8867 83.7676 68.7539 83.375 68.5352 83.1133C68.1992 82.707 67.7637 82.5039 67.2285 82.5039C66.7441 82.5039 66.3359 82.666 66.0039 82.9902C65.6758 83.3145 65.4941 83.748 65.459 84.291ZM75.3789 88V87.2148C74.9844 87.832 74.4043 88.1406 73.6387 88.1406C73.1426 88.1406 72.6855 88.0039 72.2676 87.7305C71.8535 87.457 71.5312 87.0762 71.3008 86.5879C71.0742 86.0957 70.9609 85.5312 70.9609 84.8945C70.9609 84.2734 71.0645 83.7109 71.2715 83.207C71.4785 82.6992 71.7891 82.3105 72.2031 82.041C72.6172 81.7715 73.0801 81.6367 73.5918 81.6367C73.9668 81.6367 74.3008 81.7168 74.5938 81.877C74.8867 82.0332 75.125 82.2383 75.3086 82.4922V79.4102H76.3574V88H75.3789ZM72.0449 84.8945C72.0449 85.6914 72.2129 86.2871 72.5488 86.6816C72.8848 87.0762 73.2812 87.2734 73.7383 87.2734C74.1992 87.2734 74.5898 87.0859 74.9102 86.7109C75.2344 86.332 75.3965 85.7559 75.3965 84.9824C75.3965 84.1309 75.2324 83.5059 74.9043 83.1074C74.5762 82.709 74.1719 82.5098 73.6914 82.5098C73.2227 82.5098 72.8301 82.7012 72.5137 83.084C72.2012 83.4668 72.0449 84.0703 72.0449 84.8945ZM81.4961 88V79.4102H84.7363C85.3066 79.4102 85.7422 79.4375 86.043 79.4922C86.4648 79.5625 86.8184 79.6973 87.1035 79.8965C87.3887 80.0918 87.6172 80.3672 87.7891 80.7227C87.9648 81.0781 88.0527 81.4688 88.0527 81.8945C88.0527 82.625 87.8203 83.2441 87.3555 83.752C86.8906 84.2559 86.0508 84.5078 84.8359 84.5078H82.6328V88H81.4961ZM82.6328 83.4941H84.8535C85.5879 83.4941 86.1094 83.3574 86.418 83.084C86.7266 82.8105 86.8809 82.4258 86.8809 81.9297C86.8809 81.5703 86.7891 81.2637 86.6055 81.0098C86.4258 80.752 86.1875 80.582 85.8906 80.5C85.6992 80.4492 85.3457 80.4238 84.8301 80.4238H82.6328V83.4941ZM89.3535 88V81.7773H90.3027V82.7207C90.5449 82.2793 90.7676 81.9883 90.9707 81.8477C91.1777 81.707 91.4043 81.6367 91.6504 81.6367C92.0059 81.6367 92.3672 81.75 92.7344 81.9766L92.3711 82.9551C92.1133 82.8027 91.8555 82.7266 91.5977 82.7266C91.3672 82.7266 91.1602 82.7969 90.9766 82.9375C90.793 83.0742 90.6621 83.2656 90.584 83.5117C90.4668 83.8867 90.4082 84.2969 90.4082 84.7422V88H89.3535ZM92.9688 84.8887C92.9688 83.7363 93.2891 82.8828 93.9297 82.3281C94.4648 81.8672 95.1172 81.6367 95.8867 81.6367C96.7422 81.6367 97.4414 81.918 97.9844 82.4805C98.5273 83.0391 98.7988 83.8125 98.7988 84.8008C98.7988 85.6016 98.6777 86.2324 98.4355 86.6934C98.1973 87.1504 97.8477 87.5059 97.3867 87.7598C96.9297 88.0137 96.4297 88.1406 95.8867 88.1406C95.0156 88.1406 94.3105 87.8613 93.7715 87.3027C93.2363 86.7441 92.9688 85.9395 92.9688 84.8887ZM94.0527 84.8887C94.0527 85.6855 94.2266 86.2832 94.5742 86.6816C94.9219 87.0762 95.3594 87.2734 95.8867 87.2734C96.4102 87.2734 96.8457 87.0742 97.1934 86.6758C97.541 86.2773 97.7148 85.6699 97.7148 84.8535C97.7148 84.084 97.5391 83.502 97.1875 83.1074C96.8398 82.709 96.4062 82.5098 95.8867 82.5098C95.3594 82.5098 94.9219 82.707 94.5742 83.1016C94.2266 83.4961 94.0527 84.0918 94.0527 84.8887ZM100.293 88V82.5977H99.3613V81.7773H100.293V81.1152C100.293 80.6973 100.33 80.3867 100.404 80.1836C100.506 79.9102 100.684 79.6895 100.938 79.5215C101.195 79.3496 101.555 79.2637 102.016 79.2637C102.312 79.2637 102.641 79.2988 103 79.3691L102.842 80.2891C102.623 80.25 102.416 80.2305 102.221 80.2305C101.9 80.2305 101.674 80.2988 101.541 80.4355C101.408 80.5723 101.342 80.8281 101.342 81.2031V81.7773H102.555V82.5977H101.342V88H100.293ZM107.641 85.9961L108.73 86.1309C108.559 86.7676 108.24 87.2617 107.775 87.6133C107.311 87.9648 106.717 88.1406 105.994 88.1406C105.084 88.1406 104.361 87.8613 103.826 87.3027C103.295 86.7402 103.029 85.9531 103.029 84.9414C103.029 83.8945 103.299 83.082 103.838 82.5039C104.377 81.9258 105.076 81.6367 105.936 81.6367C106.768 81.6367 107.447 81.9199 107.975 82.4863C108.502 83.0527 108.766 83.8496 108.766 84.877C108.766 84.9395 108.764 85.0332 108.76 85.1582H104.119C104.158 85.8418 104.352 86.3652 104.699 86.7285C105.047 87.0918 105.48 87.2734 106 87.2734C106.387 87.2734 106.717 87.1719 106.99 86.9688C107.264 86.7656 107.48 86.4414 107.641 85.9961ZM104.178 84.291H107.652C107.605 83.7676 107.473 83.375 107.254 83.1133C106.918 82.707 106.482 82.5039 105.947 82.5039C105.463 82.5039 105.055 82.666 104.723 82.9902C104.395 83.3145 104.213 83.748 104.178 84.291ZM109.639 86.1426L110.682 85.9785C110.74 86.3965 110.902 86.7168 111.168 86.9395C111.438 87.1621 111.812 87.2734 112.293 87.2734C112.777 87.2734 113.137 87.1758 113.371 86.9805C113.605 86.7812 113.723 86.5488 113.723 86.2832C113.723 86.0449 113.619 85.8574 113.412 85.7207C113.268 85.627 112.908 85.5078 112.334 85.3633C111.561 85.168 111.023 85 110.723 84.8594C110.426 84.7148 110.199 84.5176 110.043 84.2676C109.891 84.0137 109.814 83.7344 109.814 83.4297C109.814 83.1523 109.877 82.8965 110.002 82.6621C110.131 82.4238 110.305 82.2266 110.523 82.0703C110.688 81.9492 110.91 81.8477 111.191 81.7656C111.477 81.6797 111.781 81.6367 112.105 81.6367C112.594 81.6367 113.021 81.707 113.389 81.8477C113.76 81.9883 114.033 82.1797 114.209 82.4219C114.385 82.6602 114.506 82.9805 114.572 83.3828L113.541 83.5234C113.494 83.2031 113.357 82.9531 113.131 82.7734C112.908 82.5938 112.592 82.5039 112.182 82.5039C111.697 82.5039 111.352 82.584 111.145 82.7441C110.938 82.9043 110.834 83.0918 110.834 83.3066C110.834 83.4434 110.877 83.5664 110.963 83.6758C111.049 83.7891 111.184 83.8828 111.367 83.957C111.473 83.9961 111.783 84.0859 112.299 84.2266C113.045 84.4258 113.564 84.5898 113.857 84.7188C114.154 84.8438 114.387 85.0273 114.555 85.2695C114.723 85.5117 114.807 85.8125 114.807 86.1719C114.807 86.5234 114.703 86.8555 114.496 87.168C114.293 87.4766 113.998 87.7168 113.611 87.8887C113.225 88.0566 112.787 88.1406 112.299 88.1406C111.49 88.1406 110.873 87.9727 110.447 87.6367C110.025 87.3008 109.756 86.8027 109.639 86.1426ZM115.639 86.1426L116.682 85.9785C116.74 86.3965 116.902 86.7168 117.168 86.9395C117.438 87.1621 117.812 87.2734 118.293 87.2734C118.777 87.2734 119.137 87.1758 119.371 86.9805C119.605 86.7812 119.723 86.5488 119.723 86.2832C119.723 86.0449 119.619 85.8574 119.412 85.7207C119.268 85.627 118.908 85.5078 118.334 85.3633C117.561 85.168 117.023 85 116.723 84.8594C116.426 84.7148 116.199 84.5176 116.043 84.2676C115.891 84.0137 115.814 83.7344 115.814 83.4297C115.814 83.1523 115.877 82.8965 116.002 82.6621C116.131 82.4238 116.305 82.2266 116.523 82.0703C116.688 81.9492 116.91 81.8477 117.191 81.7656C117.477 81.6797 117.781 81.6367 118.105 81.6367C118.594 81.6367 119.021 81.707 119.389 81.8477C119.76 81.9883 120.033 82.1797 120.209 82.4219C120.385 82.6602 120.506 82.9805 120.572 83.3828L119.541 83.5234C119.494 83.2031 119.357 82.9531 119.131 82.7734C118.908 82.5938 118.592 82.5039 118.182 82.5039C117.697 82.5039 117.352 82.584 117.145 82.7441C116.938 82.9043 116.834 83.0918 116.834 83.3066C116.834 83.4434 116.877 83.5664 116.963 83.6758C117.049 83.7891 117.184 83.8828 117.367 83.957C117.473 83.9961 117.783 84.0859 118.299 84.2266C119.045 84.4258 119.564 84.5898 119.857 84.7188C120.154 84.8438 120.387 85.0273 120.555 85.2695C120.723 85.5117 120.807 85.8125 120.807 86.1719C120.807 86.5234 120.703 86.8555 120.496 87.168C120.293 87.4766 119.998 87.7168 119.611 87.8887C119.225 88.0566 118.787 88.1406 118.299 88.1406C117.49 88.1406 116.873 87.9727 116.447 87.6367C116.025 87.3008 115.756 86.8027 115.639 86.1426ZM122.066 80.623V79.4102H123.121V80.623H122.066ZM122.066 88V81.7773H123.121V88H122.066ZM124.34 84.8887C124.34 83.7363 124.66 82.8828 125.301 82.3281C125.836 81.8672 126.488 81.6367 127.258 81.6367C128.113 81.6367 128.812 81.918 129.355 82.4805C129.898 83.0391 130.17 83.8125 130.17 84.8008C130.17 85.6016 130.049 86.2324 129.807 86.6934C129.568 87.1504 129.219 87.5059 128.758 87.7598C128.301 88.0137 127.801 88.1406 127.258 88.1406C126.387 88.1406 125.682 87.8613 125.143 87.3027C124.607 86.7441 124.34 85.9395 124.34 84.8887ZM125.424 84.8887C125.424 85.6855 125.598 86.2832 125.945 86.6816C126.293 87.0762 126.73 87.2734 127.258 87.2734C127.781 87.2734 128.217 87.0742 128.564 86.6758C128.912 86.2773 129.086 85.6699 129.086 84.8535C129.086 84.084 128.91 83.502 128.559 83.1074C128.211 82.709 127.777 82.5098 127.258 82.5098C126.73 82.5098 126.293 82.707 125.945 83.1016C125.598 83.4961 125.424 84.0918 125.424 84.8887ZM131.412 88V81.7773H132.361V82.6621C132.818 81.9785 133.479 81.6367 134.342 81.6367C134.717 81.6367 135.061 81.7051 135.373 81.8418C135.689 81.9746 135.926 82.1504 136.082 82.3691C136.238 82.5879 136.348 82.8477 136.41 83.1484C136.449 83.3438 136.469 83.6855 136.469 84.1738V88H135.414V84.2148C135.414 83.7852 135.373 83.4648 135.291 83.2539C135.209 83.0391 135.062 82.8691 134.852 82.7441C134.645 82.6152 134.4 82.5508 134.119 82.5508C133.67 82.5508 133.281 82.6934 132.953 82.9785C132.629 83.2637 132.467 83.8047 132.467 84.6016V88H131.412ZM142.152 87.2324C141.762 87.5645 141.385 87.7988 141.021 87.9355C140.662 88.0723 140.275 88.1406 139.861 88.1406C139.178 88.1406 138.652 87.9746 138.285 87.6426C137.918 87.3066 137.734 86.8789 137.734 86.3594C137.734 86.0547 137.803 85.7773 137.939 85.5273C138.08 85.2734 138.262 85.0703 138.484 84.918C138.711 84.7656 138.965 84.6504 139.246 84.5723C139.453 84.5176 139.766 84.4648 140.184 84.4141C141.035 84.3125 141.662 84.1914 142.064 84.0508C142.068 83.9062 142.07 83.8145 142.07 83.7754C142.07 83.3457 141.971 83.043 141.771 82.8672C141.502 82.6289 141.102 82.5098 140.57 82.5098C140.074 82.5098 139.707 82.5977 139.469 82.7734C139.234 82.9453 139.061 83.252 138.947 83.6934L137.916 83.5527C138.01 83.1113 138.164 82.7559 138.379 82.4863C138.594 82.2129 138.904 82.0039 139.311 81.8594C139.717 81.7109 140.188 81.6367 140.723 81.6367C141.254 81.6367 141.686 81.6992 142.018 81.8242C142.35 81.9492 142.594 82.1074 142.75 82.2988C142.906 82.4863 143.016 82.7246 143.078 83.0137C143.113 83.1934 143.131 83.5176 143.131 83.9863V85.3926C143.131 86.373 143.152 86.9941 143.195 87.2559C143.242 87.5137 143.332 87.7617 143.465 88H142.363C142.254 87.7812 142.184 87.5254 142.152 87.2324ZM142.064 84.877C141.682 85.0332 141.107 85.166 140.342 85.2754C139.908 85.3379 139.602 85.4082 139.422 85.4863C139.242 85.5645 139.104 85.6797 139.006 85.832C138.908 85.9805 138.859 86.1465 138.859 86.3301C138.859 86.6113 138.965 86.8457 139.176 87.0332C139.391 87.2207 139.703 87.3145 140.113 87.3145C140.52 87.3145 140.881 87.2266 141.197 87.0508C141.514 86.8711 141.746 86.627 141.895 86.3184C142.008 86.0801 142.064 85.7285 142.064 85.2637V84.877ZM144.748 88V79.4102H145.803V88H144.748ZM147.021 86.1426L148.064 85.9785C148.123 86.3965 148.285 86.7168 148.551 86.9395C148.82 87.1621 149.195 87.2734 149.676 87.2734C150.16 87.2734 150.52 87.1758 150.754 86.9805C150.988 86.7812 151.105 86.5488 151.105 86.2832C151.105 86.0449 151.002 85.8574 150.795 85.7207C150.65 85.627 150.291 85.5078 149.717 85.3633C148.943 85.168 148.406 85 148.105 84.8594C147.809 84.7148 147.582 84.5176 147.426 84.2676C147.273 84.0137 147.197 83.7344 147.197 83.4297C147.197 83.1523 147.26 82.8965 147.385 82.6621C147.514 82.4238 147.688 82.2266 147.906 82.0703C148.07 81.9492 148.293 81.8477 148.574 81.7656C148.859 81.6797 149.164 81.6367 149.488 81.6367C149.977 81.6367 150.404 81.707 150.771 81.8477C151.143 81.9883 151.416 82.1797 151.592 82.4219C151.768 82.6602 151.889 82.9805 151.955 83.3828L150.924 83.5234C150.877 83.2031 150.74 82.9531 150.514 82.7734C150.291 82.5938 149.975 82.5039 149.564 82.5039C149.08 82.5039 148.734 82.584 148.527 82.7441C148.32 82.9043 148.217 83.0918 148.217 83.3066C148.217 83.4434 148.26 83.5664 148.346 83.6758C148.432 83.7891 148.566 83.8828 148.75 83.957C148.855 83.9961 149.166 84.0859 149.682 84.2266C150.428 84.4258 150.947 84.5898 151.24 84.7188C151.537 84.8438 151.77 85.0273 151.938 85.2695C152.105 85.5117 152.189 85.8125 152.189 86.1719C152.189 86.5234 152.086 86.8555 151.879 87.168C151.676 87.4766 151.381 87.7168 150.994 87.8887C150.607 88.0566 150.17 88.1406 149.682 88.1406C148.873 88.1406 148.256 87.9727 147.83 87.6367C147.408 87.3008 147.139 86.8027 147.021 86.1426Z" fill="#353535"/>
<defs>
<clipPath id="clip0_1113_2696">
<rect width="16" height="16" fill="white" transform="translate(70.5 24)"/>
</clipPath>
<clipPath id="clip1_1113_2696">
<rect width="16" height="16" fill="white" transform="translate(86.5 24)"/>
</clipPath>
<clipPath id="clip2_1113_2696">
<rect width="16" height="16" fill="white" transform="translate(102.5 24)"/>
</clipPath>
<clipPath id="clip3_1113_2696">
<rect width="16" height="16" fill="white" transform="translate(118.5 24)"/>
</clipPath>
<clipPath id="clip4_1113_2696">
<rect width="16" height="16" fill="white" transform="translate(134.5 24)"/>
</clipPath>
</defs>
</svg>
